<svg class="chart-line" id="chart-1" viewBox="0 0 270 100" preserveAspectRatio="xMidYMid meet"><defs><linearGradient id="gradient-1"><stop offset="0" stop-color="#00d5bd" stop-opacity="0"></stop><stop offset="100" stop-color="#24c1ed" stop-opacity="1"></stop></linearGradient><linearGradient id="gradient-4" x1="0%" y1="0%" x2="0%" y2="100%"><stop offset="0" stop-color="rgba(149, 76, 233, 1)" stop-opacity="0.07"></stop><stop offset="0.5" stop-color="rgba(149, 76, 233, 1)" stop-opacity="0.13"></stop><stop offset="1" stop-color="rgba(149, 76, 233, 1)" stop-opacity="0"></stop></linearGradient><filter id="dropshadowText"><feDropShadow dx="-0.5" dy="0.8" stdDeviation="0" flood-color="rgba(200, 4, 204, .2)"></feDropShadow><feDropShadow dx="0.8" dy="-0.5" stdDeviation="0" flood-color="rgba(51, 255, 151, .2)"></feDropShadow></filter><filter id="dropshadowUnderText"><feDropShadow dx="-0.4" dy="0" stdDeviation="0" flood-color="rgba(255, 255, 255, .2)"></feDropShadow><feDropShadow dx="0.2" dy="-0.6" stdDeviation="0" flood-color="rgba(218, 2, 222, .2)"></feDropShadow></filter><linearGradient x1="0" y1="1" x2="1" y2="1" id="linearGradientSlanvwhwlr"><stop offset="0%" stop-color="#3ec8a9" stop-opacity="0"></stop><stop offset="50%" stop-color="#3ec8a9" stop-opacity="0.7"></stop><stop offset="100%" stop-color="#3ec8a9" stop-opacity="0"></stop></linearGradient><filter id="Slanvwhwlu" filterUnits="userSpaceOnUse"><feGaussianBlur stdDeviation="5"></feGaussianBlur></filter></defs><desc>Created with Snap</desc><g id="grid" style="visibility: hidden;"><path d="M-1,10 L270,10" class="horizontal"></path><path d="M-1,20 L270,20" class="horizontal"></path><path d="M-1,30 L270,30" class="horizontal"></path><path d="M-1,40 L270,40" class="horizontal"></path><path d="M-1,50 L270,50" class="horizontal"></path><path d="M-1,60 L270,60" class="horizontal"></path><path d="M-1,70 L270,70" class="horizontal"></path><path d="M-1,80 L270,80" class="horizontal"></path><path d="M-1,90 L270,90" class="horizontal"></path><path d="M9.9,270 L9.9,0" class="vertical"></path><path d="M19.8,270 L19.8,0" class="vertical"></path><path d="M29.700000000000003,270 L29.700000000000003,0" class="vertical"></path><path d="M39.6,270 L39.6,0" class="vertical"></path><path d="M49.5,270 L49.5,0" class="vertical"></path><path d="M59.400000000000006,270 L59.400000000000006,0" class="vertical"></path><path d="M69.3,270 L69.3,0" class="vertical"></path><path d="M79.2,270 L79.2,0" class="vertical"></path><path d="M89.10000000000001,270 L89.10000000000001,0" class="vertical"></path><path d="M99,270 L99,0" class="vertical"></path><path d="M108.9,270 L108.9,0" class="vertical"></path><path d="M118.80000000000001,270 L118.80000000000001,0" class="vertical"></path><path d="M128.70000000000002,270 L128.70000000000002,0" class="vertical"></path><path d="M138.6,270 L138.6,0" class="vertical"></path><path d="M148.5,270 L148.5,0" class="vertical"></path><path d="M158.4,270 L158.4,0" class="vertical"></path><path d="M168.3,270 L168.3,0" class="vertical"></path><path d="M178.20000000000002,270 L178.20000000000002,0" class="vertical"></path><path d="M188.1,270 L188.1,0" class="vertical"></path><path d="M198,270 L198,0" class="vertical"></path><path d="M207.9,270 L207.9,0" class="vertical"></path><path d="M217.8,270 L217.8,0" class="vertical"></path><path d="M227.70000000000002,270 L227.70000000000002,0" class="vertical"></path><path d="M237.60000000000002,270 L237.60000000000002,0" class="vertical"></path><path d="M247.5,270 L247.5,0" class="vertical"></path><path d="M257.40000000000003,270 L257.40000000000003,0" class="vertical"></path></g><rect fill="#12141e" x="0" y="0" width="270" height="100" style="" class="hidden"></rect><image preserveAspectRatio="none" x="50%" y="40%" width="54" height="54" id="launchImg" style="transform: translate(-27px, -27px)" class="hidden" href="https://nearcrash.io/game/rocket/white/launch.gif"></image><text fill="#33ff97" stroke="#33ff97" x="3" y="3" id="ping-text" style="font-size: 1.8px; stroke-width: 0.1; text-rendering: geometricprecision;">Ping: 198.0</text><text style="font-size: 16px; font-weight: 600; visibility: visible; stroke-width: 0.2; dominant-baseline: middle; text-anchor: middle; text-rendering: geometricprecision; filter: url(&quot;#dropshadowText&quot;);" fill="#fb7272" stroke="#fb7272" x="50%" y="50%" id="main-text">5.62x</text><text fill="#974343" stroke="#974343" x="50%" y="56%" id="under-text" style="font-size: 4px; stroke-width: 0.2; dominant-baseline: hanging; text-anchor: middle; text-rendering: geometricprecision; filter: url(&quot;#dropshadowUnderText&quot;); visibility: visible; font-weight: 600;">Round is over</text><rect x="-33.333333333333336" y="0" width="10" height="200" fill="url('#linearGradientSlanvwhwlr')" style="transform: rotate(-45deg) scale(2) translateX(-66.66666666666667px)" stroke="rgba(0,0,0,0)" filter="url('#Slanvwhwlu')"></rect><image xlink:href="https://nearcrash.io/game/rocket/white/elon.png" preserveAspectRatio="none" x="0" y="0" width="8" height="8" class="cosmo hidden"></image><g id="currencyGroup"></g><image xlink:href="https://nearcrash.io/game/rocket/white/astro.png" preserveAspectRatio="none" x="0" y="0" width="13" height="13" class="cosmo hidden"></image></svg>