<svg width="60" height="52" viewBox="0 0 60 52" fill="none" xmlns="http://www.w3.org/2000/svg">
<path d="M51.9598 3.95995V0H7.9198V3.95995H51.9598ZM3.9598 3.95995H7.91975V7.9199L3.9598 7.9201V3.95995ZM51.9598 3.95995H55.9198V7.9199H51.9598V3.95995ZM15.9598 20.0399H19.9198V23.9999H15.9598V20.0399ZM27.9598 20.0399H31.9197V23.9999H27.9598V20.0399ZM39.9598 20.0399H43.9198V23.9999H39.9598V20.0399ZM59.9998 8.03995V36H56.0399V39.9599H52.0799V43.9198L35.9999 43.92V47.9999H32.0399V51.9599H28.08V47.9999H23.9999V44.04H7.9199V40.08H3.95995V35.9999H0V8.03995H3.95995V32.0399H7.9199V35.9999H23.9999V39.9598H27.9598V43.9198H31.9198V39.9598H35.9999V35.9999H51.9599V32.0399H55.9198V8.03995L59.9998 8.03995Z" fill="white"/>
</svg>
