<svg width="40" height="41" viewBox="0 0 40 41" fill="none" xmlns="http://www.w3.org/2000/svg">
<path fill-rule="evenodd" clip-rule="evenodd" d="M10.0002 0.888977V4.22221H30.0001V0.888977H10.0002ZM30.0001 4.22221V7.55545H33.3333V4.22221H30.0001ZM33.3333 7.55545V10.889H36.6668V7.55545H33.3333ZM36.6668 10.889V30.889H40V10.889H36.6668ZM36.6668 30.889H33.3333V34.2225H36.6668V30.889ZM33.3333 34.2225H30.0001V37.5557H33.3333V34.2225ZM30.0001 37.5557H10.0002V40.889H30.0001V37.5557ZM10.0002 37.5557V34.2225H6.66671V37.5557H10.0002ZM6.66671 34.2225V30.889H3.3335V34.2225H6.66671ZM3.3335 30.889V10.889H0V30.889H3.3335ZM3.3335 10.889H6.66671V7.55545H3.3335V10.889ZM6.66671 7.55545H10.0002V4.22221H6.66671V7.55545ZM10.0002 14.2223V17.5558H13.3334V14.2223H10.0002ZM16.6667 14.2223V17.5558H30.0004V14.2223H16.6667ZM10.0002 24.2223V27.5558H13.3334V24.2223H10.0002ZM16.6667 24.2223V27.5558H30.0004V24.2223H16.6667Z" fill="white"/>
</svg>
