<svg width="60" height="60" viewBox="0 0 60 60" fill="none" xmlns="http://www.w3.org/2000/svg">
<path fill-rule="evenodd" clip-rule="evenodd" d="M15 0V5.0002H45V0H15ZM45 5.0002V9.99996H50.0003V5.0002H45ZM50.0003 9.99996V14.9997H55.0001V9.99996H50.0003ZM55.0001 14.9997V45.0003H60V14.9997H55.0001ZM55.0001 45.0003H50.0003V50H55.0001V45.0003ZM50.0003 50H45V54.9998H50.0003V50ZM45 54.9998H15V60H45V54.9998ZM15 54.9998V50H9.99971V54.9998H15ZM9.99971 50V45.0003H4.99986V50H9.99971ZM4.99986 45.0003V14.9997H0V45.0003H4.99986ZM4.99986 14.9997H9.99971V9.99996H4.99986V14.9997ZM9.99971 9.99996H15V5.0002H9.99971V9.99996ZM20 9.99996V49.9996H25.0003V44.9998H30.0001V39.9996H35V34.9999H40.0003V24.9998H35V20H30.0001V14.9998H25.0003V10.0001L20 9.99996Z" fill="white"/>
</svg>
