<svg width="40" height="41" viewBox="0 0 40 41" fill="none" xmlns="http://www.w3.org/2000/svg">
<path d="M37.7775 14.2222V8.44445H34.6664V6.22225H32.4442V3.55546L27.111 3.55577V0.888977H12.8887V3.55577H7.55548V6.22256H5.33326V8.44476H2.22222V14.2225L0 14.2222V27.5554H2.22222V33.3332H5.33326V35.5554H7.55548V38.2222H12.8887V40.889H27.111V38.2222H32.4442V35.5554H34.6664V33.3332H37.7775L37.7778 27.5554H40V14.2222H37.7775ZM38.6663 26.2221H36.4441V31.9999H33.333V34.2221H31.1108V36.8889H25.7775V39.5557L14.222 39.5554V36.8886L8.88873 36.8889V34.2221H6.66651V31.9999H3.55548V26.2221H1.33325V15.5556H3.55548V9.77777H6.66651V7.55557H8.88873V4.88878H14.222V2.2223H25.7775V4.8891H31.1108V7.55589H33.333V9.77808H36.4441V15.5559H38.6663V26.2221Z" fill="white"/>
<path d="M8.44409 22.2221H11.1109V24.8889H8.44409V22.2221Z" fill="white"/>
<path d="M13.7773 22.2221H16.4442V24.8889H13.7773V22.2221Z" fill="white"/>
<path d="M11.1108 19.5555H13.7777V22.2223H11.1108V19.5555Z" fill="white"/>
<path d="M23.5552 22.2221H26.222V24.8889H23.5552V22.2221Z" fill="white"/>
<path d="M28.8887 22.2221H31.5555V24.8889H28.8887V22.2221Z" fill="white"/>
<path d="M26.2219 19.5555H28.8888V22.2223H26.2219V19.5555Z" fill="white"/>
<path d="M15.9995 27.5554H23.9995V30.2222H15.9995V27.5554Z" fill="white"/>
</svg>
