<svg width="40" height="41" viewBox="0 0 40 41" fill="none" xmlns="http://www.w3.org/2000/svg">
<path d="M17.5 0.888977H29.9996V3.38901H17.5V0.888977Z" fill="white"/>
<path d="M29.9995 3.3891H32.4995V5.88914H29.9995V3.3891Z" fill="white"/>
<path d="M27.5005 5.88928H30.0005V8.38932H27.5005V5.88928Z" fill="white"/>
<path d="M25.0002 8.3894H27.5003V13.3895H25.0002V8.3894Z" fill="white"/>
<path d="M27.5005 13.3886H32.5006V15.8886H27.5005V13.3886Z" fill="white"/>
<path d="M32.4995 10.8896H34.9995V13.3896H32.4995V10.8896Z" fill="white"/>
<path d="M34.9998 8.3894H37.4998V10.8894H34.9998V8.3894Z" fill="white"/>
<path d="M37.5 10.8896H40V23.3892H37.5V10.8896Z" fill="white"/>
<path d="M14.9998 3.3891H17.4998V5.88914H14.9998V3.3891Z" fill="white"/>
<path d="M12.4995 5.88928H14.9995V8.38932H12.4995V5.88928Z" fill="white"/>
<path d="M10.0005 8.3894H12.5005V23.3892H10.0005V8.3894Z" fill="white"/>
<path d="M34.9998 23.3892H37.4998V25.8892H34.9998V23.3892Z" fill="white"/>
<path d="M32.4995 25.8893H34.9995V28.3894H32.4995V25.8893Z" fill="white"/>
<path d="M7.50049 23.3892H10.0005V25.8892H7.50049V23.3892Z" fill="white"/>
<path d="M5.00024 25.8893H7.50028V28.3894H5.00024V25.8893Z" fill="white"/>
<path d="M2.5 28.3895H5.00004V30.8895H2.5V28.3895Z" fill="white"/>
<path d="M0 30.8885H2.50004V33.3885H0V30.8885Z" fill="white"/>
<path d="M12.4995 33.3887H14.9995V35.8887H12.4995V33.3887Z" fill="white"/>
<path d="M14.9998 30.8885H17.4998V33.3885H14.9998V30.8885Z" fill="white"/>
<path d="M10.0005 35.8888H12.5005V38.3888H10.0005V35.8888Z" fill="white"/>
<path d="M7.50049 38.3889H10.0005V40.889H7.50049V38.3889Z" fill="white"/>
<path d="M17.5 28.3895H20V30.8895H17.5V28.3895Z" fill="white"/>
<path d="M20 28.3895H32.4996V30.8895H20V28.3895Z" fill="white"/>
</svg>
