<svg width="61" height="61" viewBox="0 0 61 61" fill="none" xmlns="http://www.w3.org/2000/svg">
<path fill-rule="evenodd" clip-rule="evenodd" d="M15.0328 0V5.01079H45.0984V0H15.0328ZM45.0984 5.01079V10.022H50.1096V5.01079H45.0984ZM50.1096 10.022V15.0328H55.1204V10.022H50.1096ZM55.1204 15.0328V45.0984H60.1312V15.0328H55.1204ZM55.1204 45.0984H50.1096V50.1096H55.1204V45.0984ZM50.1096 50.1096H45.0984V55.1204H50.1096V50.1096ZM45.0984 55.1204H15.0328V60.1316H45.0984V55.1204ZM15.0328 55.1204V50.1096H10.0216V55.1204H15.0328ZM10.0216 50.1096V45.0984H5.01079V50.1096H10.0216ZM5.01079 45.0984V15.0328H0V45.0984H5.01079ZM5.01079 15.0328H10.0216V10.022H5.01079V15.0328ZM10.0216 10.022H15.0328V5.01079H10.0216V10.022ZM35.0766 10.022V15.0328H40.0878V10.022H35.0766ZM40.0878 15.0328V20.0436H45.0986V15.0328H40.0878ZM45.0986 20.0436V40.088H50.1098V20.0436H45.0986ZM45.0986 40.088H40.0878V45.0988H45.0986V40.088ZM40.0878 45.0988H35.0766V50.1101H40.0878V45.0988ZM20.0434 15.0332V20.044H15.0326V25.0552H10.0214V35.0774H15.0326V40.0882H20.0434V45.0989H25.0546V15.0333L20.0434 15.0332ZM30.0655 20.044V25.0552H35.0763V20.044H30.0655ZM35.0763 25.0552V35.0774H40.0875V25.0552H35.0763ZM35.0763 35.0774H30.0655V40.0882H35.0763V35.0774Z" fill="white"/>
</svg>
