<?xml version="1.0" encoding="UTF-8" ?>
<svg version="1.1" width="96" height="96" xmlns="http://www.w3.org/2000/svg" shape-rendering="crispEdges">
<rect x="42" y="21" width="3" height="3" fill="#000000" />
<rect x="45" y="21" width="3" height="3" fill="#000000" />
<rect x="48" y="21" width="3" height="3" fill="#000000" />
<rect x="51" y="21" width="3" height="3" fill="#000000" />
<rect x="36" y="24" width="3" height="3" fill="#000000" />
<rect x="39" y="24" width="3" height="3" fill="#000000" />
<rect x="42" y="24" width="3" height="3" fill="#F9DA4C" />
<rect x="45" y="24" width="3" height="3" fill="#F9DA4C" />
<rect x="48" y="24" width="3" height="3" fill="#FFD100" />
<rect x="51" y="24" width="3" height="3" fill="#FFD100" />
<rect x="54" y="24" width="3" height="3" fill="#000000" />
<rect x="57" y="24" width="3" height="3" fill="#000000" />
<rect x="33" y="27" width="3" height="3" fill="#000000" />
<rect x="36" y="27" width="3" height="3" fill="#EBC104" />
<rect x="39" y="27" width="3" height="3" fill="#FFD100" />
<rect x="54" y="27" width="3" height="3" fill="#F9DA4C" />
<rect x="57" y="27" width="3" height="3" fill="#F9DA4C" />
<rect x="60" y="27" width="3" height="3" fill="#000000" />
<rect x="30" y="30" width="3" height="3" fill="#000000" />
<rect x="33" y="30" width="3" height="3" fill="#FFD100" />
<rect x="60" y="30" width="3" height="3" fill="#F9DA4C" />
<rect x="63" y="30" width="3" height="3" fill="#000000" />
<rect x="27" y="33" width="3" height="3" fill="#000000" />
<rect x="30" y="33" width="3" height="3" fill="#F9DA4C" />
<rect x="63" y="33" width="3" height="3" fill="#EBC104" />
<rect x="66" y="33" width="3" height="3" fill="#000000" />
<rect x="24" y="36" width="3" height="3" fill="#000000" />
<rect x="27" y="36" width="3" height="3" fill="#FFD100" />
<rect x="66" y="36" width="3" height="3" fill="#F9DA4C" />
<rect x="69" y="36" width="3" height="3" fill="#000000" />
<rect x="24" y="39" width="3" height="3" fill="#000000" />
<rect x="27" y="39" width="3" height="3" fill="#F9DA4C" />
<rect x="36" y="39" width="3" height="3" fill="#FFD100" />
<rect x="39" y="39" width="3" height="3" fill="#FFD100" />
<rect x="45" y="39" width="3" height="3" fill="#FFD100" />
<rect x="48" y="39" width="3" height="3" fill="#FFD100" />
<rect x="51" y="39" width="3" height="3" fill="#FFD100" />
<rect x="54" y="39" width="3" height="3" fill="#FFD100" />
<rect x="57" y="39" width="3" height="3" fill="#FFD100" />
<rect x="60" y="39" width="3" height="3" fill="#FFD100" />
<rect x="66" y="39" width="3" height="3" fill="#FFD100" />
<rect x="69" y="39" width="3" height="3" fill="#000000" />
<rect x="21" y="42" width="3" height="3" fill="#000000" />
<rect x="24" y="42" width="3" height="3" fill="#FFD100" />
<rect x="36" y="42" width="3" height="3" fill="#EBC104" />
<rect x="39" y="42" width="3" height="3" fill="#FFD100" />
<rect x="45" y="42" width="3" height="3" fill="#FFD100" />
<rect x="48" y="42" width="3" height="3" fill="#EBC104" />
<rect x="51" y="42" width="3" height="3" fill="#EBC104" />
<rect x="54" y="42" width="3" height="3" fill="#FFD100" />
<rect x="57" y="42" width="3" height="3" fill="#EBC104" />
<rect x="60" y="42" width="3" height="3" fill="#FFD100" />
<rect x="69" y="42" width="3" height="3" fill="#EBC104" />
<rect x="72" y="42" width="3" height="3" fill="#000000" />
<rect x="21" y="45" width="3" height="3" fill="#000000" />
<rect x="24" y="45" width="3" height="3" fill="#EBC104" />
<rect x="69" y="45" width="3" height="3" fill="#EBC104" />
<rect x="72" y="45" width="3" height="3" fill="#000000" />
<rect x="21" y="48" width="3" height="3" fill="#000000" />
<rect x="24" y="48" width="3" height="3" fill="#EBC104" />
<rect x="69" y="48" width="3" height="3" fill="#FFD100" />
<rect x="72" y="48" width="3" height="3" fill="#000000" />
<rect x="21" y="51" width="3" height="3" fill="#000000" />
<rect x="24" y="51" width="3" height="3" fill="#FFD100" />
<rect x="36" y="51" width="3" height="3" fill="#FFD100" />
<rect x="39" y="51" width="3" height="3" fill="#FFD100" />
<rect x="45" y="51" width="3" height="3" fill="#FFD100" />
<rect x="48" y="51" width="3" height="3" fill="#FFD100" />
<rect x="51" y="51" width="3" height="3" fill="#FFD100" />
<rect x="54" y="51" width="3" height="3" fill="#FFD100" />
<rect x="57" y="51" width="3" height="3" fill="#FFD100" />
<rect x="60" y="51" width="3" height="3" fill="#FFD100" />
<rect x="69" y="51" width="3" height="3" fill="#FFD100" />
<rect x="72" y="51" width="3" height="3" fill="#000000" />
<rect x="24" y="54" width="3" height="3" fill="#000000" />
<rect x="27" y="54" width="3" height="3" fill="#EBC104" />
<rect x="36" y="54" width="3" height="3" fill="#FFD100" />
<rect x="39" y="54" width="3" height="3" fill="#EBC104" />
<rect x="45" y="54" width="3" height="3" fill="#EBC104" />
<rect x="48" y="54" width="3" height="3" fill="#FFD100" />
<rect x="51" y="54" width="3" height="3" fill="#EBC104" />
<rect x="54" y="54" width="3" height="3" fill="#EBC104" />
<rect x="57" y="54" width="3" height="3" fill="#FFD100" />
<rect x="60" y="54" width="3" height="3" fill="#EBC104" />
<rect x="66" y="54" width="3" height="3" fill="#EBC104" />
<rect x="69" y="54" width="3" height="3" fill="#000000" />
<rect x="24" y="57" width="3" height="3" fill="#000000" />
<rect x="27" y="57" width="3" height="3" fill="#FFD100" />
<rect x="66" y="57" width="3" height="3" fill="#EBC104" />
<rect x="69" y="57" width="3" height="3" fill="#000000" />
<rect x="27" y="60" width="3" height="3" fill="#000000" />
<rect x="30" y="60" width="3" height="3" fill="#EBC104" />
<rect x="63" y="60" width="3" height="3" fill="#FFD100" />
<rect x="66" y="60" width="3" height="3" fill="#000000" />
<rect x="30" y="63" width="3" height="3" fill="#000000" />
<rect x="33" y="63" width="3" height="3" fill="#FFD100" />
<rect x="60" y="63" width="3" height="3" fill="#EBC104" />
<rect x="63" y="63" width="3" height="3" fill="#000000" />
<rect x="33" y="66" width="3" height="3" fill="#000000" />
<rect x="36" y="66" width="3" height="3" fill="#FFD100" />
<rect x="39" y="66" width="3" height="3" fill="#EBC104" />
<rect x="54" y="66" width="3" height="3" fill="#EBC104" />
<rect x="57" y="66" width="3" height="3" fill="#EBC104" />
<rect x="60" y="66" width="3" height="3" fill="#000000" />
<rect x="36" y="69" width="3" height="3" fill="#000000" />
<rect x="39" y="69" width="3" height="3" fill="#000000" />
<rect x="42" y="69" width="3" height="3" fill="#FFD100" />
<rect x="45" y="69" width="3" height="3" fill="#FFD100" />
<rect x="48" y="69" width="3" height="3" fill="#EBC104" />
<rect x="51" y="69" width="3" height="3" fill="#EBC104" />
<rect x="54" y="69" width="3" height="3" fill="#000000" />
<rect x="57" y="69" width="3" height="3" fill="#000000" />
<rect x="42" y="72" width="3" height="3" fill="#000000" />
<rect x="45" y="72" width="3" height="3" fill="#000000" />
<rect x="48" y="72" width="3" height="3" fill="#000000" />
<rect x="51" y="72" width="3" height="3" fill="#000000" />
</svg>