<?xml version="1.0" encoding="UTF-8" ?>
<svg version="1.1" width="96" height="96" xmlns="http://www.w3.org/2000/svg" shape-rendering="crispEdges">
<rect x="36" y="30" width="3" height="3" fill="#000000" />
<rect x="39" y="30" width="3" height="3" fill="#1A1A1A" />
<rect x="42" y="30" width="3" height="3" fill="#1A1A1A" />
<rect x="45" y="30" width="3" height="3" fill="#1A1A1A" />
<rect x="48" y="30" width="3" height="3" fill="#000000" />
<rect x="51" y="30" width="3" height="3" fill="#000000" />
<rect x="33" y="33" width="3" height="3" fill="#000000" />
<rect x="36" y="33" width="3" height="3" fill="#5C5C5C" />
<rect x="39" y="33" width="3" height="3" fill="#5C5C5C" />
<rect x="42" y="33" width="3" height="3" fill="#5C5C5C" />
<rect x="45" y="33" width="3" height="3" fill="#262626" />
<rect x="48" y="33" width="3" height="3" fill="#262626" />
<rect x="51" y="33" width="3" height="3" fill="#000000" />
<rect x="54" y="33" width="3" height="3" fill="#1A1A1A" />
<rect x="57" y="33" width="3" height="3" fill="#1A1A1A" />
<rect x="60" y="33" width="3" height="3" fill="#545454" />
<rect x="63" y="33" width="3" height="3" fill="#000000" />
<rect x="24" y="36" width="3" height="3" fill="#1A1A1A" />
<rect x="27" y="36" width="3" height="3" fill="#1A1A1A" />
<rect x="30" y="36" width="3" height="3" fill="#1A1A1A" />
<rect x="33" y="36" width="3" height="3" fill="#262626" />
<rect x="36" y="36" width="3" height="3" fill="#454545" />
<rect x="39" y="36" width="3" height="3" fill="#5C5C5C" />
<rect x="42" y="36" width="3" height="3" fill="#5C5C5C" />
<rect x="45" y="36" width="3" height="3" fill="#5C5C5C" />
<rect x="48" y="36" width="3" height="3" fill="#262626" />
<rect x="51" y="36" width="3" height="3" fill="#5C5C5C" />
<rect x="54" y="36" width="3" height="3" fill="#5C5C5C" />
<rect x="57" y="36" width="3" height="3" fill="#0A0A0A" />
<rect x="60" y="36" width="3" height="3" fill="#545454" />
<rect x="63" y="36" width="3" height="3" fill="#545454" />
<rect x="66" y="36" width="3" height="3" fill="#000000" />
<rect x="21" y="39" width="3" height="3" fill="#000000" />
<rect x="24" y="39" width="3" height="3" fill="#454545" />
<rect x="27" y="39" width="3" height="3" fill="#010101" />
<rect x="30" y="39" width="3" height="3" fill="#5C5C5C" />
<rect x="33" y="39" width="3" height="3" fill="#262626" />
<rect x="36" y="39" width="3" height="3" fill="#454545" />
<rect x="39" y="39" width="3" height="3" fill="#454545" />
<rect x="42" y="39" width="3" height="3" fill="#454545" />
<rect x="45" y="39" width="3" height="3" fill="#5C5C5C" />
<rect x="48" y="39" width="3" height="3" fill="#5C5C5C" />
<rect x="51" y="39" width="3" height="3" fill="#454545" />
<rect x="54" y="39" width="3" height="3" fill="#5C5C5C" />
<rect x="57" y="39" width="3" height="3" fill="#454545" />
<rect x="60" y="39" width="3" height="3" fill="#545454" />
<rect x="63" y="39" width="3" height="3" fill="#454545" />
<rect x="66" y="39" width="3" height="3" fill="#5C5C5C" />
<rect x="18" y="42" width="3" height="3" fill="#000000" />
<rect x="21" y="42" width="3" height="3" fill="#454545" />
<rect x="24" y="42" width="3" height="3" fill="#262626" />
<rect x="27" y="42" width="3" height="3" fill="#5C5C5C" />
<rect x="30" y="42" width="3" height="3" fill="#5C5C5C" />
<rect x="33" y="42" width="3" height="3" fill="#454545" />
<rect x="36" y="42" width="3" height="3" fill="#454545" />
<rect x="39" y="42" width="3" height="3" fill="#454545" />
<rect x="42" y="42" width="3" height="3" fill="#454545" />
<rect x="45" y="42" width="3" height="3" fill="#454545" />
<rect x="48" y="42" width="3" height="3" fill="#454545" />
<rect x="51" y="42" width="3" height="3" fill="#454545" />
<rect x="54" y="42" width="3" height="3" fill="#454545" />
<rect x="57" y="42" width="3" height="3" fill="#5C5C5C" />
<rect x="60" y="42" width="3" height="3" fill="#010101" />
<rect x="63" y="42" width="3" height="3" fill="#5C5C5C" />
<rect x="66" y="42" width="3" height="3" fill="#5C5C5C" />
<rect x="69" y="42" width="3" height="3" fill="#000000" />
<rect x="18" y="45" width="3" height="3" fill="#1A1A1A" />
<rect x="21" y="45" width="3" height="3" fill="#454545" />
<rect x="24" y="45" width="3" height="3" fill="#454545" />
<rect x="27" y="45" width="3" height="3" fill="#454545" />
<rect x="30" y="45" width="3" height="3" fill="#454545" />
<rect x="33" y="45" width="3" height="3" fill="#454545" />
<rect x="36" y="45" width="3" height="3" fill="#454545" />
<rect x="39" y="45" width="3" height="3" fill="#454545" />
<rect x="42" y="45" width="3" height="3" fill="#010101" />
<rect x="45" y="45" width="3" height="3" fill="#454545" />
<rect x="48" y="45" width="3" height="3" fill="#454545" />
<rect x="51" y="45" width="3" height="3" fill="#454545" />
<rect x="54" y="45" width="3" height="3" fill="#5C5C5C" />
<rect x="57" y="45" width="3" height="3" fill="#5C5C5C" />
<rect x="60" y="45" width="3" height="3" fill="#5C5C5C" />
<rect x="63" y="45" width="3" height="3" fill="#5C5C5C" />
<rect x="66" y="45" width="3" height="3" fill="#262626" />
<rect x="69" y="45" width="3" height="3" fill="#5C5C5C" />
<rect x="72" y="45" width="3" height="3" fill="#1A1A1A" />
<rect x="18" y="48" width="3" height="3" fill="#1A1A1A" />
<rect x="21" y="48" width="3" height="3" fill="#5C5C5C" />
<rect x="24" y="48" width="3" height="3" fill="#454545" />
<rect x="27" y="48" width="3" height="3" fill="#454545" />
<rect x="30" y="48" width="3" height="3" fill="#545454" />
<rect x="33" y="48" width="3" height="3" fill="#545454" />
<rect x="36" y="48" width="3" height="3" fill="#545454" />
<rect x="39" y="48" width="3" height="3" fill="#262626" />
<rect x="42" y="48" width="3" height="3" fill="#262626" />
<rect x="45" y="48" width="3" height="3" fill="#262626" />
<rect x="48" y="48" width="3" height="3" fill="#454545" />
<rect x="51" y="48" width="3" height="3" fill="#454545" />
<rect x="54" y="48" width="3" height="3" fill="#454545" />
<rect x="57" y="48" width="3" height="3" fill="#262626" />
<rect x="60" y="48" width="3" height="3" fill="#5C5C5C" />
<rect x="63" y="48" width="3" height="3" fill="#454545" />
<rect x="66" y="48" width="3" height="3" fill="#262626" />
<rect x="69" y="48" width="3" height="3" fill="#5C5C5C" />
<rect x="72" y="48" width="3" height="3" fill="#1A1A1A" />
<rect x="18" y="51" width="3" height="3" fill="#1A1A1A" />
<rect x="21" y="51" width="3" height="3" fill="#5C5C5C" />
<rect x="24" y="51" width="3" height="3" fill="#262626" />
<rect x="27" y="51" width="3" height="3" fill="#454545" />
<rect x="30" y="51" width="3" height="3" fill="#5C5C5C" />
<rect x="33" y="51" width="3" height="3" fill="#5C5C5C" />
<rect x="36" y="51" width="3" height="3" fill="#454545" />
<rect x="39" y="51" width="3" height="3" fill="#454545" />
<rect x="42" y="51" width="3" height="3" fill="#454545" />
<rect x="45" y="51" width="3" height="3" fill="#454545" />
<rect x="48" y="51" width="3" height="3" fill="#454545" />
<rect x="51" y="51" width="3" height="3" fill="#545454" />
<rect x="54" y="51" width="3" height="3" fill="#454545" />
<rect x="57" y="51" width="3" height="3" fill="#262626" />
<rect x="60" y="51" width="3" height="3" fill="#5C5C5C" />
<rect x="63" y="51" width="3" height="3" fill="#5C5C5C" />
<rect x="66" y="51" width="3" height="3" fill="#5C5C5C" />
<rect x="69" y="51" width="3" height="3" fill="#727272" />
<rect x="18" y="54" width="3" height="3" fill="#000000" />
<rect x="21" y="54" width="3" height="3" fill="#000000" />
<rect x="24" y="54" width="3" height="3" fill="#262626" />
<rect x="27" y="54" width="3" height="3" fill="#454545" />
<rect x="30" y="54" width="3" height="3" fill="#5C5C5C" />
<rect x="33" y="54" width="3" height="3" fill="#5C5C5C" />
<rect x="36" y="54" width="3" height="3" fill="#454545" />
<rect x="39" y="54" width="3" height="3" fill="#545454" />
<rect x="42" y="54" width="3" height="3" fill="#545454" />
<rect x="45" y="54" width="3" height="3" fill="#454545" />
<rect x="48" y="54" width="3" height="3" fill="#262626" />
<rect x="51" y="54" width="3" height="3" fill="#262626" />
<rect x="54" y="54" width="3" height="3" fill="#454545" />
<rect x="57" y="54" width="3" height="3" fill="#5C5C5C" />
<rect x="60" y="54" width="3" height="3" fill="#5C5C5C" />
<rect x="63" y="54" width="3" height="3" fill="#454545" />
<rect x="66" y="54" width="3" height="3" fill="#454545" />
<rect x="69" y="54" width="3" height="3" fill="#1A1A1A" />
<rect x="27" y="57" width="3" height="3" fill="#000000" />
<rect x="30" y="57" width="3" height="3" fill="#000000" />
<rect x="33" y="57" width="3" height="3" fill="#000000" />
<rect x="36" y="57" width="3" height="3" fill="#000000" />
<rect x="39" y="57" width="3" height="3" fill="#454545" />
<rect x="42" y="57" width="3" height="3" fill="#454545" />
<rect x="45" y="57" width="3" height="3" fill="#454545" />
<rect x="48" y="57" width="3" height="3" fill="#010101" />
<rect x="51" y="57" width="3" height="3" fill="#262626" />
<rect x="54" y="57" width="3" height="3" fill="#454545" />
<rect x="57" y="57" width="3" height="3" fill="#454545" />
<rect x="60" y="57" width="3" height="3" fill="#454545" />
<rect x="63" y="57" width="3" height="3" fill="#1A1A1A" />
<rect x="66" y="57" width="3" height="3" fill="#727272" />
<rect x="69" y="57" width="3" height="3" fill="#000000" />
<rect x="39" y="60" width="3" height="3" fill="#000000" />
<rect x="42" y="60" width="3" height="3" fill="#454545" />
<rect x="45" y="60" width="3" height="3" fill="#454545" />
<rect x="48" y="60" width="3" height="3" fill="#545454" />
<rect x="51" y="60" width="3" height="3" fill="#454545" />
<rect x="54" y="60" width="3" height="3" fill="#454545" />
<rect x="57" y="60" width="3" height="3" fill="#454545" />
<rect x="60" y="60" width="3" height="3" fill="#727272" />
<rect x="42" y="63" width="3" height="3" fill="#000000" />
<rect x="45" y="63" width="3" height="3" fill="#1A1A1A" />
<rect x="48" y="63" width="3" height="3" fill="#727272" />
<rect x="51" y="63" width="3" height="3" fill="#1A1A1A" />
<rect x="54" y="63" width="3" height="3" fill="#727272" />
<rect x="57" y="63" width="3" height="3" fill="#000000" />
</svg>