<?xml version="1.0" encoding="UTF-8" ?>
<svg version="1.1" width="96" height="96" xmlns="http://www.w3.org/2000/svg" shape-rendering="crispEdges">
<rect x="18" y="36" width="3" height="3" fill="#FFD100" />
<rect x="21" y="36" width="3" height="3" fill="#FFD100" />
<rect x="24" y="36" width="3" height="3" fill="#FFD100" />
<rect x="27" y="36" width="3" height="3" fill="#FFD100" />
<rect x="30" y="36" width="3" height="3" fill="#FFD100" />
<rect x="33" y="36" width="3" height="3" fill="#FFD100" />
<rect x="36" y="36" width="3" height="3" fill="#FFD100" />
<rect x="39" y="36" width="3" height="3" fill="#FFD100" />
<rect x="42" y="36" width="3" height="3" fill="#FFD100" />
<rect x="45" y="36" width="3" height="3" fill="#FFD100" />
<rect x="48" y="36" width="3" height="3" fill="#FFD100" />
<rect x="51" y="36" width="3" height="3" fill="#FFD100" />
<rect x="54" y="36" width="3" height="3" fill="#FFD100" />
<rect x="57" y="36" width="3" height="3" fill="#FFD100" />
<rect x="60" y="36" width="3" height="3" fill="#FFD100" />
<rect x="63" y="36" width="3" height="3" fill="#FFD100" />
<rect x="66" y="36" width="3" height="3" fill="#FFD100" />
<rect x="69" y="36" width="3" height="3" fill="#FFD100" />
<rect x="72" y="36" width="3" height="3" fill="#FFD100" />
<rect x="75" y="36" width="3" height="3" fill="#FFD100" />
<rect x="15" y="39" width="3" height="3" fill="#FFD100" />
<rect x="18" y="39" width="3" height="3" fill="#CFAA04" />
<rect x="21" y="39" width="3" height="3" fill="#CFAA04" />
<rect x="24" y="39" width="3" height="3" fill="#CFAA04" />
<rect x="27" y="39" width="3" height="3" fill="#CFAA04" />
<rect x="30" y="39" width="3" height="3" fill="#CFAA04" />
<rect x="33" y="39" width="3" height="3" fill="#CFAA04" />
<rect x="36" y="39" width="3" height="3" fill="#CFAA04" />
<rect x="39" y="39" width="3" height="3" fill="#CFAA04" />
<rect x="42" y="39" width="3" height="3" fill="#CFAA04" />
<rect x="45" y="39" width="3" height="3" fill="#CFAA04" />
<rect x="48" y="39" width="3" height="3" fill="#CFAA04" />
<rect x="51" y="39" width="3" height="3" fill="#CFAA04" />
<rect x="54" y="39" width="3" height="3" fill="#CFAA04" />
<rect x="57" y="39" width="3" height="3" fill="#CFAA04" />
<rect x="60" y="39" width="3" height="3" fill="#CFAA04" />
<rect x="63" y="39" width="3" height="3" fill="#CFAA04" />
<rect x="66" y="39" width="3" height="3" fill="#CFAA04" />
<rect x="69" y="39" width="3" height="3" fill="#CFAA04" />
<rect x="72" y="39" width="3" height="3" fill="#CFAA04" />
<rect x="75" y="39" width="3" height="3" fill="#CFAA04" />
<rect x="78" y="39" width="3" height="3" fill="#FFD100" />
<rect x="12" y="42" width="3" height="3" fill="#FFD100" />
<rect x="15" y="42" width="3" height="3" fill="#CFAA04" />
<rect x="18" y="42" width="3" height="3" fill="#CFAA04" />
<rect x="21" y="42" width="3" height="3" fill="#CFAA04" />
<rect x="24" y="42" width="3" height="3" fill="#CFAA04" />
<rect x="27" y="42" width="3" height="3" fill="#CFAA04" />
<rect x="30" y="42" width="3" height="3" fill="#CFAA04" />
<rect x="33" y="42" width="3" height="3" fill="#CFAA04" />
<rect x="36" y="42" width="3" height="3" fill="#CFAA04" />
<rect x="39" y="42" width="3" height="3" fill="#CFAA04" />
<rect x="42" y="42" width="3" height="3" fill="#CFAA04" />
<rect x="45" y="42" width="3" height="3" fill="#CFAA04" />
<rect x="48" y="42" width="3" height="3" fill="#CFAA04" />
<rect x="51" y="42" width="3" height="3" fill="#CFAA04" />
<rect x="54" y="42" width="3" height="3" fill="#CFAA04" />
<rect x="57" y="42" width="3" height="3" fill="#CFAA04" />
<rect x="60" y="42" width="3" height="3" fill="#CFAA04" />
<rect x="63" y="42" width="3" height="3" fill="#CFAA04" />
<rect x="66" y="42" width="3" height="3" fill="#CFAA04" />
<rect x="69" y="42" width="3" height="3" fill="#CFAA04" />
<rect x="72" y="42" width="3" height="3" fill="#CFAA04" />
<rect x="75" y="42" width="3" height="3" fill="#CFAA04" />
<rect x="78" y="42" width="3" height="3" fill="#CFAA04" />
<rect x="81" y="42" width="3" height="3" fill="#FFD100" />
<rect x="12" y="45" width="3" height="3" fill="#FFD100" />
<rect x="15" y="45" width="3" height="3" fill="#EBC104" />
<rect x="18" y="45" width="3" height="3" fill="#EBC104" />
<rect x="21" y="45" width="3" height="3" fill="#EBC104" />
<rect x="24" y="45" width="3" height="3" fill="#EBC104" />
<rect x="27" y="45" width="3" height="3" fill="#EBC104" />
<rect x="30" y="45" width="3" height="3" fill="#EBC104" />
<rect x="33" y="45" width="3" height="3" fill="#EBC104" />
<rect x="36" y="45" width="3" height="3" fill="#EBC104" />
<rect x="39" y="45" width="3" height="3" fill="#EBC104" />
<rect x="42" y="45" width="3" height="3" fill="#EBC104" />
<rect x="45" y="45" width="3" height="3" fill="#EBC104" />
<rect x="48" y="45" width="3" height="3" fill="#EBC104" />
<rect x="51" y="45" width="3" height="3" fill="#EBC104" />
<rect x="54" y="45" width="3" height="3" fill="#EBC104" />
<rect x="57" y="45" width="3" height="3" fill="#EBC104" />
<rect x="60" y="45" width="3" height="3" fill="#EBC104" />
<rect x="63" y="45" width="3" height="3" fill="#EBC104" />
<rect x="66" y="45" width="3" height="3" fill="#EBC104" />
<rect x="69" y="45" width="3" height="3" fill="#EBC104" />
<rect x="72" y="45" width="3" height="3" fill="#EBC104" />
<rect x="75" y="45" width="3" height="3" fill="#EBC104" />
<rect x="78" y="45" width="3" height="3" fill="#EBC104" />
<rect x="81" y="45" width="3" height="3" fill="#FFD100" />
<rect x="12" y="48" width="3" height="3" fill="#FFD100" />
<rect x="15" y="48" width="3" height="3" fill="#EBC104" />
<rect x="18" y="48" width="3" height="3" fill="#EBC104" />
<rect x="21" y="48" width="3" height="3" fill="#EBC104" />
<rect x="24" y="48" width="3" height="3" fill="#EBC104" />
<rect x="27" y="48" width="3" height="3" fill="#EBC104" />
<rect x="30" y="48" width="3" height="3" fill="#EBC104" />
<rect x="33" y="48" width="3" height="3" fill="#EBC104" />
<rect x="36" y="48" width="3" height="3" fill="#EBC104" />
<rect x="39" y="48" width="3" height="3" fill="#EBC104" />
<rect x="42" y="48" width="3" height="3" fill="#EBC104" />
<rect x="45" y="48" width="3" height="3" fill="#EBC104" />
<rect x="48" y="48" width="3" height="3" fill="#EBC104" />
<rect x="51" y="48" width="3" height="3" fill="#EBC104" />
<rect x="54" y="48" width="3" height="3" fill="#EBC104" />
<rect x="57" y="48" width="3" height="3" fill="#EBC104" />
<rect x="60" y="48" width="3" height="3" fill="#EBC104" />
<rect x="63" y="48" width="3" height="3" fill="#EBC104" />
<rect x="66" y="48" width="3" height="3" fill="#EBC104" />
<rect x="69" y="48" width="3" height="3" fill="#EBC104" />
<rect x="72" y="48" width="3" height="3" fill="#EBC104" />
<rect x="75" y="48" width="3" height="3" fill="#EBC104" />
<rect x="78" y="48" width="3" height="3" fill="#EBC104" />
<rect x="81" y="48" width="3" height="3" fill="#FFD100" />
<rect x="12" y="51" width="3" height="3" fill="#FFD100" />
<rect x="15" y="51" width="3" height="3" fill="#EBC104" />
<rect x="18" y="51" width="3" height="3" fill="#EBC104" />
<rect x="21" y="51" width="3" height="3" fill="#EBC104" />
<rect x="24" y="51" width="3" height="3" fill="#EBC104" />
<rect x="27" y="51" width="3" height="3" fill="#EBC104" />
<rect x="30" y="51" width="3" height="3" fill="#EBC104" />
<rect x="33" y="51" width="3" height="3" fill="#EBC104" />
<rect x="36" y="51" width="3" height="3" fill="#EBC104" />
<rect x="39" y="51" width="3" height="3" fill="#EBC104" />
<rect x="42" y="51" width="3" height="3" fill="#EBC104" />
<rect x="45" y="51" width="3" height="3" fill="#EBC104" />
<rect x="48" y="51" width="3" height="3" fill="#EBC104" />
<rect x="51" y="51" width="3" height="3" fill="#EBC104" />
<rect x="54" y="51" width="3" height="3" fill="#EBC104" />
<rect x="57" y="51" width="3" height="3" fill="#EBC104" />
<rect x="60" y="51" width="3" height="3" fill="#EBC104" />
<rect x="63" y="51" width="3" height="3" fill="#EBC104" />
<rect x="66" y="51" width="3" height="3" fill="#EBC104" />
<rect x="69" y="51" width="3" height="3" fill="#EBC104" />
<rect x="72" y="51" width="3" height="3" fill="#EBC104" />
<rect x="75" y="51" width="3" height="3" fill="#EBC104" />
<rect x="78" y="51" width="3" height="3" fill="#EBC104" />
<rect x="81" y="51" width="3" height="3" fill="#FFD100" />
<rect x="12" y="54" width="3" height="3" fill="#EBC104" />
<rect x="15" y="54" width="3" height="3" fill="#FFD100" />
<rect x="18" y="54" width="3" height="3" fill="#EBC104" />
<rect x="21" y="54" width="3" height="3" fill="#EBC104" />
<rect x="24" y="54" width="3" height="3" fill="#EBC104" />
<rect x="27" y="54" width="3" height="3" fill="#EBC104" />
<rect x="30" y="54" width="3" height="3" fill="#EBC104" />
<rect x="33" y="54" width="3" height="3" fill="#EBC104" />
<rect x="36" y="54" width="3" height="3" fill="#EBC104" />
<rect x="39" y="54" width="3" height="3" fill="#EBC104" />
<rect x="42" y="54" width="3" height="3" fill="#EBC104" />
<rect x="45" y="54" width="3" height="3" fill="#EBC104" />
<rect x="48" y="54" width="3" height="3" fill="#EBC104" />
<rect x="51" y="54" width="3" height="3" fill="#EBC104" />
<rect x="54" y="54" width="3" height="3" fill="#EBC104" />
<rect x="57" y="54" width="3" height="3" fill="#EBC104" />
<rect x="60" y="54" width="3" height="3" fill="#EBC104" />
<rect x="63" y="54" width="3" height="3" fill="#EBC104" />
<rect x="66" y="54" width="3" height="3" fill="#EBC104" />
<rect x="69" y="54" width="3" height="3" fill="#EBC104" />
<rect x="72" y="54" width="3" height="3" fill="#EBC104" />
<rect x="75" y="54" width="3" height="3" fill="#EBC104" />
<rect x="78" y="54" width="3" height="3" fill="#FFD100" />
<rect x="81" y="54" width="3" height="3" fill="#EBC104" />
<rect x="15" y="57" width="3" height="3" fill="#EBC104" />
<rect x="18" y="57" width="3" height="3" fill="#FFD100" />
<rect x="21" y="57" width="3" height="3" fill="#FFD100" />
<rect x="24" y="57" width="3" height="3" fill="#FFD100" />
<rect x="27" y="57" width="3" height="3" fill="#FFD100" />
<rect x="30" y="57" width="3" height="3" fill="#FFD100" />
<rect x="33" y="57" width="3" height="3" fill="#FFD100" />
<rect x="36" y="57" width="3" height="3" fill="#FFD100" />
<rect x="39" y="57" width="3" height="3" fill="#FFD100" />
<rect x="42" y="57" width="3" height="3" fill="#FFD100" />
<rect x="45" y="57" width="3" height="3" fill="#FFD100" />
<rect x="48" y="57" width="3" height="3" fill="#FFD100" />
<rect x="51" y="57" width="3" height="3" fill="#FFD100" />
<rect x="54" y="57" width="3" height="3" fill="#FFD100" />
<rect x="57" y="57" width="3" height="3" fill="#FFD100" />
<rect x="60" y="57" width="3" height="3" fill="#FFD100" />
<rect x="63" y="57" width="3" height="3" fill="#FFD100" />
<rect x="66" y="57" width="3" height="3" fill="#FFD100" />
<rect x="69" y="57" width="3" height="3" fill="#FFD100" />
<rect x="72" y="57" width="3" height="3" fill="#FFD100" />
<rect x="75" y="57" width="3" height="3" fill="#FFD100" />
<rect x="78" y="57" width="3" height="3" fill="#EBC104" />
<rect x="18" y="60" width="3" height="3" fill="#EBC104" />
<rect x="21" y="60" width="3" height="3" fill="#EBC104" />
<rect x="24" y="60" width="3" height="3" fill="#EBC104" />
<rect x="27" y="60" width="3" height="3" fill="#EBC104" />
<rect x="30" y="60" width="3" height="3" fill="#EBC104" />
<rect x="33" y="60" width="3" height="3" fill="#EBC104" />
<rect x="36" y="60" width="3" height="3" fill="#EBC104" />
<rect x="39" y="60" width="3" height="3" fill="#EBC104" />
<rect x="42" y="60" width="3" height="3" fill="#EBC104" />
<rect x="45" y="60" width="3" height="3" fill="#EBC104" />
<rect x="48" y="60" width="3" height="3" fill="#EBC104" />
<rect x="51" y="60" width="3" height="3" fill="#EBC104" />
<rect x="54" y="60" width="3" height="3" fill="#EBC104" />
<rect x="57" y="60" width="3" height="3" fill="#EBC104" />
<rect x="60" y="60" width="3" height="3" fill="#EBC104" />
<rect x="63" y="60" width="3" height="3" fill="#EBC104" />
<rect x="66" y="60" width="3" height="3" fill="#EBC104" />
<rect x="69" y="60" width="3" height="3" fill="#EBC104" />
<rect x="72" y="60" width="3" height="3" fill="#EBC104" />
<rect x="75" y="60" width="3" height="3" fill="#EBC104" />
</svg>