<?xml version="1.0" encoding="UTF-8" ?>
<svg version="1.1" width="96" height="96" xmlns="http://www.w3.org/2000/svg" shape-rendering="crispEdges">
<rect x="33" y="24" width="3" height="3" fill="#000000" />
<rect x="36" y="24" width="3" height="3" fill="#000000" />
<rect x="39" y="24" width="3" height="3" fill="#000000" />
<rect x="42" y="24" width="3" height="3" fill="#000000" />
<rect x="45" y="24" width="3" height="3" fill="#000000" />
<rect x="48" y="24" width="3" height="3" fill="#000000" />
<rect x="51" y="24" width="3" height="3" fill="#000000" />
<rect x="54" y="24" width="3" height="3" fill="#000000" />
<rect x="57" y="24" width="3" height="3" fill="#000000" />
<rect x="60" y="24" width="3" height="3" fill="#000000" />
<rect x="30" y="27" width="3" height="3" fill="#000000" />
<rect x="33" y="27" width="3" height="3" fill="#FBDC4D" />
<rect x="36" y="27" width="3" height="3" fill="#FAE275" />
<rect x="39" y="27" width="3" height="3" fill="#FAE275" />
<rect x="42" y="27" width="3" height="3" fill="#FBDC4D" />
<rect x="45" y="27" width="3" height="3" fill="#FAE275" />
<rect x="48" y="27" width="3" height="3" fill="#FAE275" />
<rect x="51" y="27" width="3" height="3" fill="#FBDC4D" />
<rect x="54" y="27" width="3" height="3" fill="#FAE275" />
<rect x="57" y="27" width="3" height="3" fill="#FAE275" />
<rect x="60" y="27" width="3" height="3" fill="#FBDC4D" />
<rect x="63" y="27" width="3" height="3" fill="#000000" />
<rect x="27" y="30" width="3" height="3" fill="#000000" />
<rect x="30" y="30" width="3" height="3" fill="#FAE275" />
<rect x="33" y="30" width="3" height="3" fill="#FAE275" />
<rect x="36" y="30" width="3" height="3" fill="#FFD100" />
<rect x="39" y="30" width="3" height="3" fill="#FFD100" />
<rect x="42" y="30" width="3" height="3" fill="#FFD100" />
<rect x="45" y="30" width="3" height="3" fill="#FFD100" />
<rect x="48" y="30" width="3" height="3" fill="#FFD100" />
<rect x="51" y="30" width="3" height="3" fill="#FFD100" />
<rect x="54" y="30" width="3" height="3" fill="#FFD100" />
<rect x="57" y="30" width="3" height="3" fill="#FFD100" />
<rect x="60" y="30" width="3" height="3" fill="#FAE275" />
<rect x="63" y="30" width="3" height="3" fill="#FAE275" />
<rect x="66" y="30" width="3" height="3" fill="#000000" />
<rect x="24" y="33" width="3" height="3" fill="#000000" />
<rect x="27" y="33" width="3" height="3" fill="#FBDC4D" />
<rect x="30" y="33" width="3" height="3" fill="#FAE275" />
<rect x="33" y="33" width="3" height="3" fill="#FFD100" />
<rect x="36" y="33" width="3" height="3" fill="#FFD100" />
<rect x="39" y="33" width="3" height="3" fill="#FFD100" />
<rect x="42" y="33" width="3" height="3" fill="#FFD100" />
<rect x="45" y="33" width="3" height="3" fill="#FFD100" />
<rect x="48" y="33" width="3" height="3" fill="#FFD100" />
<rect x="51" y="33" width="3" height="3" fill="#FFD100" />
<rect x="54" y="33" width="3" height="3" fill="#FFD100" />
<rect x="57" y="33" width="3" height="3" fill="#FFD100" />
<rect x="60" y="33" width="3" height="3" fill="#FFD100" />
<rect x="63" y="33" width="3" height="3" fill="#FAE275" />
<rect x="66" y="33" width="3" height="3" fill="#FBDC4D" />
<rect x="69" y="33" width="3" height="3" fill="#000000" />
<rect x="24" y="36" width="3" height="3" fill="#000000" />
<rect x="27" y="36" width="3" height="3" fill="#FAE275" />
<rect x="30" y="36" width="3" height="3" fill="#FFD100" />
<rect x="33" y="36" width="3" height="3" fill="#FFD100" />
<rect x="36" y="36" width="3" height="3" fill="#FFD100" />
<rect x="39" y="36" width="3" height="3" fill="#FFD100" />
<rect x="42" y="36" width="3" height="3" fill="#FFD100" />
<rect x="45" y="36" width="3" height="3" fill="#FFD100" />
<rect x="48" y="36" width="3" height="3" fill="#FFD100" />
<rect x="51" y="36" width="3" height="3" fill="#FFD100" />
<rect x="54" y="36" width="3" height="3" fill="#FFD100" />
<rect x="57" y="36" width="3" height="3" fill="#FFD100" />
<rect x="60" y="36" width="3" height="3" fill="#FFD100" />
<rect x="63" y="36" width="3" height="3" fill="#FFD100" />
<rect x="66" y="36" width="3" height="3" fill="#FAE275" />
<rect x="69" y="36" width="3" height="3" fill="#000000" />
<rect x="24" y="39" width="3" height="3" fill="#000000" />
<rect x="27" y="39" width="3" height="3" fill="#FBDC4D" />
<rect x="30" y="39" width="3" height="3" fill="#FFD100" />
<rect x="33" y="39" width="3" height="3" fill="#FFD100" />
<rect x="36" y="39" width="3" height="3" fill="#FFD100" />
<rect x="39" y="39" width="3" height="3" fill="#FFD100" />
<rect x="42" y="39" width="3" height="3" fill="#FFD100" />
<rect x="45" y="39" width="3" height="3" fill="#FFFFFF" />
<rect x="48" y="39" width="3" height="3" fill="#FFFFFF" />
<rect x="51" y="39" width="3" height="3" fill="#FFD100" />
<rect x="54" y="39" width="3" height="3" fill="#FFD100" />
<rect x="57" y="39" width="3" height="3" fill="#FFD100" />
<rect x="60" y="39" width="3" height="3" fill="#FFD100" />
<rect x="63" y="39" width="3" height="3" fill="#FFD100" />
<rect x="66" y="39" width="3" height="3" fill="#FBDC4D" />
<rect x="69" y="39" width="3" height="3" fill="#000000" />
<rect x="24" y="42" width="3" height="3" fill="#000000" />
<rect x="27" y="42" width="3" height="3" fill="#DDB601" />
<rect x="30" y="42" width="3" height="3" fill="#FFD100" />
<rect x="33" y="42" width="3" height="3" fill="#FFD100" />
<rect x="36" y="42" width="3" height="3" fill="#FFD100" />
<rect x="39" y="42" width="3" height="3" fill="#FFD100" />
<rect x="42" y="42" width="3" height="3" fill="#FFD100" />
<rect x="45" y="42" width="3" height="3" fill="#FFFFFF" />
<rect x="48" y="42" width="3" height="3" fill="#FFFFFF" />
<rect x="51" y="42" width="3" height="3" fill="#FFD100" />
<rect x="54" y="42" width="3" height="3" fill="#FFD100" />
<rect x="57" y="42" width="3" height="3" fill="#FFD100" />
<rect x="60" y="42" width="3" height="3" fill="#FFD100" />
<rect x="63" y="42" width="3" height="3" fill="#FFD100" />
<rect x="66" y="42" width="3" height="3" fill="#DDB601" />
<rect x="69" y="42" width="3" height="3" fill="#000000" />
<rect x="24" y="45" width="3" height="3" fill="#000000" />
<rect x="27" y="45" width="3" height="3" fill="#DDB601" />
<rect x="30" y="45" width="3" height="3" fill="#FFD100" />
<rect x="33" y="45" width="3" height="3" fill="#FFD100" />
<rect x="36" y="45" width="3" height="3" fill="#FFD100" />
<rect x="39" y="45" width="3" height="3" fill="#FFFFFF" />
<rect x="42" y="45" width="3" height="3" fill="#FFFFFF" />
<rect x="45" y="45" width="3" height="3" fill="#FFFFFF" />
<rect x="48" y="45" width="3" height="3" fill="#FFFFFF" />
<rect x="51" y="45" width="3" height="3" fill="#FFFFFF" />
<rect x="54" y="45" width="3" height="3" fill="#FFFFFF" />
<rect x="57" y="45" width="3" height="3" fill="#FFD100" />
<rect x="60" y="45" width="3" height="3" fill="#FFD100" />
<rect x="63" y="45" width="3" height="3" fill="#FFD100" />
<rect x="66" y="45" width="3" height="3" fill="#DDB601" />
<rect x="69" y="45" width="3" height="3" fill="#000000" />
<rect x="24" y="48" width="3" height="3" fill="#000000" />
<rect x="27" y="48" width="3" height="3" fill="#DDB601" />
<rect x="30" y="48" width="3" height="3" fill="#FFD100" />
<rect x="33" y="48" width="3" height="3" fill="#FFD100" />
<rect x="36" y="48" width="3" height="3" fill="#FFD100" />
<rect x="39" y="48" width="3" height="3" fill="#FFFFFF" />
<rect x="42" y="48" width="3" height="3" fill="#FFFFFF" />
<rect x="45" y="48" width="3" height="3" fill="#FFFFFF" />
<rect x="48" y="48" width="3" height="3" fill="#FFFFFF" />
<rect x="51" y="48" width="3" height="3" fill="#FFFFFF" />
<rect x="54" y="48" width="3" height="3" fill="#FFFFFF" />
<rect x="57" y="48" width="3" height="3" fill="#FFD100" />
<rect x="60" y="48" width="3" height="3" fill="#FFD100" />
<rect x="63" y="48" width="3" height="3" fill="#FFD100" />
<rect x="66" y="48" width="3" height="3" fill="#DDB601" />
<rect x="69" y="48" width="3" height="3" fill="#000000" />
<rect x="24" y="51" width="3" height="3" fill="#000000" />
<rect x="27" y="51" width="3" height="3" fill="#DDB601" />
<rect x="30" y="51" width="3" height="3" fill="#FFD100" />
<rect x="33" y="51" width="3" height="3" fill="#FFD100" />
<rect x="36" y="51" width="3" height="3" fill="#FFD100" />
<rect x="39" y="51" width="3" height="3" fill="#D6B41E" />
<rect x="42" y="51" width="3" height="3" fill="#D6B41E" />
<rect x="45" y="51" width="3" height="3" fill="#FFFFFF" />
<rect x="48" y="51" width="3" height="3" fill="#FFFFFF" />
<rect x="51" y="51" width="3" height="3" fill="#D6B41E" />
<rect x="54" y="51" width="3" height="3" fill="#D6B41E" />
<rect x="57" y="51" width="3" height="3" fill="#FFD100" />
<rect x="60" y="51" width="3" height="3" fill="#FFD100" />
<rect x="63" y="51" width="3" height="3" fill="#FFD100" />
<rect x="66" y="51" width="3" height="3" fill="#DDB601" />
<rect x="69" y="51" width="3" height="3" fill="#000000" />
<rect x="24" y="54" width="3" height="3" fill="#000000" />
<rect x="27" y="54" width="3" height="3" fill="#DDB601" />
<rect x="30" y="54" width="3" height="3" fill="#FFD100" />
<rect x="33" y="54" width="3" height="3" fill="#FFD100" />
<rect x="36" y="54" width="3" height="3" fill="#FFD100" />
<rect x="39" y="54" width="3" height="3" fill="#FFD100" />
<rect x="42" y="54" width="3" height="3" fill="#FFD100" />
<rect x="45" y="54" width="3" height="3" fill="#FFFFFF" />
<rect x="48" y="54" width="3" height="3" fill="#FFFFFF" />
<rect x="51" y="54" width="3" height="3" fill="#FFD100" />
<rect x="54" y="54" width="3" height="3" fill="#FFD100" />
<rect x="57" y="54" width="3" height="3" fill="#FFD100" />
<rect x="60" y="54" width="3" height="3" fill="#FFD100" />
<rect x="63" y="54" width="3" height="3" fill="#FFD100" />
<rect x="66" y="54" width="3" height="3" fill="#DDB601" />
<rect x="69" y="54" width="3" height="3" fill="#000000" />
<rect x="24" y="57" width="3" height="3" fill="#000000" />
<rect x="27" y="57" width="3" height="3" fill="#DDB601" />
<rect x="30" y="57" width="3" height="3" fill="#FFD100" />
<rect x="33" y="57" width="3" height="3" fill="#FFD100" />
<rect x="36" y="57" width="3" height="3" fill="#FFD100" />
<rect x="39" y="57" width="3" height="3" fill="#FFD100" />
<rect x="42" y="57" width="3" height="3" fill="#FFD100" />
<rect x="45" y="57" width="3" height="3" fill="#D6B41E" />
<rect x="48" y="57" width="3" height="3" fill="#D6B41E" />
<rect x="51" y="57" width="3" height="3" fill="#FFD100" />
<rect x="54" y="57" width="3" height="3" fill="#FFD100" />
<rect x="57" y="57" width="3" height="3" fill="#FFD100" />
<rect x="60" y="57" width="3" height="3" fill="#FFD100" />
<rect x="63" y="57" width="3" height="3" fill="#FFD100" />
<rect x="66" y="57" width="3" height="3" fill="#DDB601" />
<rect x="69" y="57" width="3" height="3" fill="#000000" />
<rect x="24" y="60" width="3" height="3" fill="#000000" />
<rect x="27" y="60" width="3" height="3" fill="#DDB601" />
<rect x="30" y="60" width="3" height="3" fill="#DDB601" />
<rect x="33" y="60" width="3" height="3" fill="#FFD100" />
<rect x="36" y="60" width="3" height="3" fill="#FFD100" />
<rect x="39" y="60" width="3" height="3" fill="#FFD100" />
<rect x="42" y="60" width="3" height="3" fill="#FFD100" />
<rect x="45" y="60" width="3" height="3" fill="#FFD100" />
<rect x="48" y="60" width="3" height="3" fill="#FFD100" />
<rect x="51" y="60" width="3" height="3" fill="#FFD100" />
<rect x="54" y="60" width="3" height="3" fill="#FFD100" />
<rect x="57" y="60" width="3" height="3" fill="#FFD100" />
<rect x="60" y="60" width="3" height="3" fill="#FFD100" />
<rect x="63" y="60" width="3" height="3" fill="#DDB601" />
<rect x="66" y="60" width="3" height="3" fill="#DDB601" />
<rect x="69" y="60" width="3" height="3" fill="#000000" />
<rect x="24" y="63" width="3" height="3" fill="#3B3A39" />
<rect x="27" y="63" width="3" height="3" fill="#000000" />
<rect x="30" y="63" width="3" height="3" fill="#DDB601" />
<rect x="33" y="63" width="3" height="3" fill="#DDB601" />
<rect x="36" y="63" width="3" height="3" fill="#FFD100" />
<rect x="39" y="63" width="3" height="3" fill="#FFD100" />
<rect x="42" y="63" width="3" height="3" fill="#FFD100" />
<rect x="45" y="63" width="3" height="3" fill="#FFD100" />
<rect x="48" y="63" width="3" height="3" fill="#FFD100" />
<rect x="51" y="63" width="3" height="3" fill="#FFD100" />
<rect x="54" y="63" width="3" height="3" fill="#FFD100" />
<rect x="57" y="63" width="3" height="3" fill="#FFD100" />
<rect x="60" y="63" width="3" height="3" fill="#DDB601" />
<rect x="63" y="63" width="3" height="3" fill="#DDB601" />
<rect x="66" y="63" width="3" height="3" fill="#000000" />
<rect x="69" y="63" width="3" height="3" fill="#3B3A39" />
<rect x="24" y="66" width="3" height="3" fill="#000000" />
<rect x="27" y="66" width="3" height="3" fill="#3B3A39" />
<rect x="30" y="66" width="3" height="3" fill="#000000" />
<rect x="33" y="66" width="3" height="3" fill="#DDB601" />
<rect x="36" y="66" width="3" height="3" fill="#DDB601" />
<rect x="39" y="66" width="3" height="3" fill="#DDB601" />
<rect x="42" y="66" width="3" height="3" fill="#DDB601" />
<rect x="45" y="66" width="3" height="3" fill="#DDB601" />
<rect x="48" y="66" width="3" height="3" fill="#DDB601" />
<rect x="51" y="66" width="3" height="3" fill="#DDB601" />
<rect x="54" y="66" width="3" height="3" fill="#DDB601" />
<rect x="57" y="66" width="3" height="3" fill="#DDB601" />
<rect x="60" y="66" width="3" height="3" fill="#DDB601" />
<rect x="63" y="66" width="3" height="3" fill="#000000" />
<rect x="66" y="66" width="3" height="3" fill="#3B3A39" />
<rect x="69" y="66" width="3" height="3" fill="#000000" />
<rect x="24" y="69" width="3" height="3" fill="#3B3A39" />
<rect x="27" y="69" width="3" height="3" fill="#000000" />
<rect x="30" y="69" width="3" height="3" fill="#3B3A39" />
<rect x="33" y="69" width="3" height="3" fill="#000000" />
<rect x="36" y="69" width="3" height="3" fill="#000000" />
<rect x="39" y="69" width="3" height="3" fill="#000000" />
<rect x="42" y="69" width="3" height="3" fill="#000000" />
<rect x="45" y="69" width="3" height="3" fill="#000000" />
<rect x="48" y="69" width="3" height="3" fill="#000000" />
<rect x="51" y="69" width="3" height="3" fill="#000000" />
<rect x="54" y="69" width="3" height="3" fill="#000000" />
<rect x="57" y="69" width="3" height="3" fill="#000000" />
<rect x="60" y="69" width="3" height="3" fill="#000000" />
<rect x="63" y="69" width="3" height="3" fill="#3B3A39" />
<rect x="66" y="69" width="3" height="3" fill="#000000" />
<rect x="69" y="69" width="3" height="3" fill="#3B3A39" />
<rect x="27" y="72" width="3" height="3" fill="#3B3A39" />
<rect x="30" y="72" width="3" height="3" fill="#000000" />
<rect x="33" y="72" width="3" height="3" fill="#3B3A39" />
<rect x="36" y="72" width="3" height="3" fill="#3B3A39" />
<rect x="39" y="72" width="3" height="3" fill="#3B3A39" />
<rect x="42" y="72" width="3" height="3" fill="#3B3A39" />
<rect x="45" y="72" width="3" height="3" fill="#3B3A39" />
<rect x="48" y="72" width="3" height="3" fill="#3B3A39" />
<rect x="51" y="72" width="3" height="3" fill="#3B3A39" />
<rect x="54" y="72" width="3" height="3" fill="#3B3A39" />
<rect x="57" y="72" width="3" height="3" fill="#3B3A39" />
<rect x="60" y="72" width="3" height="3" fill="#3B3A39" />
<rect x="63" y="72" width="3" height="3" fill="#000000" />
<rect x="66" y="72" width="3" height="3" fill="#3B3A39" />
<rect x="30" y="75" width="3" height="3" fill="#3B3A39" />
<rect x="33" y="75" width="3" height="3" fill="#000000" />
<rect x="36" y="75" width="3" height="3" fill="#000000" />
<rect x="39" y="75" width="3" height="3" fill="#000000" />
<rect x="42" y="75" width="3" height="3" fill="#000000" />
<rect x="45" y="75" width="3" height="3" fill="#000000" />
<rect x="48" y="75" width="3" height="3" fill="#000000" />
<rect x="51" y="75" width="3" height="3" fill="#000000" />
<rect x="54" y="75" width="3" height="3" fill="#000000" />
<rect x="57" y="75" width="3" height="3" fill="#000000" />
<rect x="60" y="75" width="3" height="3" fill="#000000" />
<rect x="63" y="75" width="3" height="3" fill="#3B3A39" />
<rect x="33" y="78" width="3" height="3" fill="#3B3A39" />
<rect x="36" y="78" width="3" height="3" fill="#3B3A39" />
<rect x="39" y="78" width="3" height="3" fill="#3B3A39" />
<rect x="42" y="78" width="3" height="3" fill="#3B3A39" />
<rect x="45" y="78" width="3" height="3" fill="#3B3A39" />
<rect x="48" y="78" width="3" height="3" fill="#3B3A39" />
<rect x="51" y="78" width="3" height="3" fill="#3B3A39" />
<rect x="54" y="78" width="3" height="3" fill="#3B3A39" />
<rect x="57" y="78" width="3" height="3" fill="#3B3A39" />
<rect x="60" y="78" width="3" height="3" fill="#3B3A39" />
</svg>