<svg width="134" height="134" viewBox="0 0 134 134" fill="none" xmlns="http://www.w3.org/2000/svg">
<g clip-path="url(#clip0_119_2)">
<path d="M99.5858 45.572L97.9375 43.0654L95.4309 44.7137L97.0792 47.2203L99.5858 45.572Z" fill="#171717"/>
<path d="M101.234 48.0786L99.5859 45.572L97.0793 47.2203L98.7276 49.7269L101.234 48.0786Z" fill="#171717"/>
<path d="M95.431 44.7136L93.7827 42.207L91.2761 43.8553L92.9244 46.3619L95.431 44.7136Z" fill="#171717"/>
<path d="M97.0792 47.2202L95.4309 44.7136L92.9243 46.3619L94.5726 48.8685L97.0792 47.2202Z" fill="#E6E6E6"/>
<path d="M98.7276 49.7268L97.0793 47.2202L94.5727 48.8685L96.221 51.3751L98.7276 49.7268Z" fill="#E6E6E6"/>
<path d="M100.376 52.2334L98.7275 49.7268L96.2209 51.3751L97.8692 53.8817L100.376 52.2334Z" fill="#171717"/>
<path d="M91.276 43.8552L89.6277 41.3486L87.1211 42.9969L88.7694 45.5035L91.276 43.8552Z" fill="#171717"/>
<path d="M92.9244 46.3618L91.2761 43.8552L88.7695 45.5035L90.4178 48.0101L92.9244 46.3618Z" fill="#E6E6E6"/>
<path d="M94.5726 48.8684L92.9243 46.3618L90.4177 48.0101L92.066 50.5167L94.5726 48.8684Z" fill="#393939"/>
<path d="M96.2211 51.3753L94.5728 48.8687L92.0661 50.517L93.7144 53.0236L96.2211 51.3753Z" fill="#393939"/>
<path d="M97.8692 53.8819L96.2209 51.3752L93.7143 53.0235L95.3626 55.5302L97.8692 53.8819Z" fill="#E6E6E6"/>
<path d="M99.5174 56.3884L97.8691 53.8818L95.3625 55.5301L97.0108 58.0367L99.5174 56.3884Z" fill="#171717"/>
<path d="M87.1212 42.9971L85.4729 40.4905L82.9663 42.1388L84.6146 44.6454L87.1212 42.9971Z" fill="#171717"/>
<path d="M88.7694 45.5037L87.1211 42.9971L84.6145 44.6454L86.2628 47.152L88.7694 45.5037Z" fill="#B2B6B7"/>
<path d="M90.4178 48.0103L88.7695 45.5037L86.2629 47.152L87.9112 49.6586L90.4178 48.0103Z" fill="#393939"/>
<path d="M92.066 50.5169L90.4177 48.0103L87.9111 49.6586L89.5594 52.1652L92.066 50.5169Z" fill="#C7AF14"/>
<path d="M93.7145 53.0235L92.0662 50.5168L89.5595 52.1651L91.2079 54.6718L93.7145 53.0235Z" fill="#C7AF14"/>
<path d="M95.3627 55.53L93.7144 53.0234L91.2077 54.6717L92.856 57.1784L95.3627 55.53Z" fill="#393939"/>
<path d="M97.0108 58.0366L95.3625 55.53L92.8559 57.1783L94.5042 59.6849L97.0108 58.0366Z" fill="#B2B6B7"/>
<path d="M98.6593 60.5432L97.011 58.0366L94.5044 59.6849L96.1527 62.1915L98.6593 60.5432Z" fill="#171717"/>
<path d="M82.9662 42.1387L81.3179 39.6321L78.8113 41.2804L80.4596 43.787L82.9662 42.1387Z" fill="#171717"/>
<path d="M84.6146 44.6453L82.9663 42.1387L80.4597 43.787L82.108 46.2936L84.6146 44.6453Z" fill="#B2B6B7"/>
<path d="M86.2628 47.1519L84.6145 44.6453L82.1079 46.2936L83.7562 48.8002L86.2628 47.1519Z" fill="#393939"/>
<path d="M87.9112 49.6585L86.2629 47.1519L83.7563 48.8002L85.4046 51.3068L87.9112 49.6585Z" fill="#393939"/>
<path d="M89.5594 52.1651L87.9111 49.6584L85.4045 51.3067L87.0528 53.8134L89.5594 52.1651Z" fill="#FFFBE0"/>
<path d="M91.2076 54.6717L89.5593 52.165L87.0527 53.8133L88.701 56.32L91.2076 54.6717Z" fill="#FBE555"/>
<path d="M92.8561 57.1785L91.2078 54.6719L88.7012 56.3202L90.3495 58.8268L92.8561 57.1785Z" fill="#393939"/>
<path d="M94.5043 59.6851L92.856 57.1785L90.3493 58.8268L91.9976 61.3334L94.5043 59.6851Z" fill="#393939"/>
<path d="M96.1527 62.1917L94.5044 59.6851L91.9978 61.3334L93.6461 63.84L96.1527 62.1917Z" fill="#B2B6B7"/>
<path d="M97.8009 64.6983L96.1526 62.1917L93.646 63.84L95.2943 66.3466L97.8009 64.6983Z" fill="#171717"/>
<path d="M80.4596 43.7869L78.8113 41.2803L76.3047 42.9286L77.953 45.4352L80.4596 43.7869Z" fill="#171717"/>
<path d="M82.108 46.2937L80.4597 43.7871L77.9531 45.4354L79.6014 47.942L82.108 46.2937Z" fill="#B2B6B7"/>
<path d="M83.7562 48.8003L82.1079 46.2937L79.6013 47.942L81.2496 50.4486L83.7562 48.8003Z" fill="#393939"/>
<path d="M85.4044 51.3069L83.7561 48.8003L81.2495 50.4486L82.8978 52.9552L85.4044 51.3069Z" fill="#C7AF14"/>
<path d="M87.0528 53.8135L85.4045 51.3069L82.8979 52.9552L84.5462 55.4618L87.0528 53.8135Z" fill="#F2D72C"/>
<path d="M88.701 56.3201L87.0527 53.8135L84.5461 55.4618L86.1944 57.9684L88.701 56.3201Z" fill="#F2D72C"/>
<path d="M90.3495 58.8267L88.7012 56.3201L86.1946 57.9684L87.8429 60.475L90.3495 58.8267Z" fill="#C7AF14"/>
<path d="M91.9977 61.3333L90.3494 58.8267L87.8428 60.475L89.4911 62.9816L91.9977 61.3333Z" fill="#393939"/>
<path d="M93.6461 63.8399L91.9978 61.3333L89.4912 62.9816L91.1395 65.4882L93.6461 63.8399Z" fill="#B2B6B7"/>
<path d="M95.2943 66.3465L93.646 63.8398L91.1394 65.4881L92.7877 67.9948L95.2943 66.3465Z" fill="#171717"/>
<path d="M77.953 45.4353L76.3047 42.9287L73.7981 44.577L75.4464 47.0836L77.953 45.4353Z" fill="black"/>
<path d="M79.6014 47.9419L77.9531 45.4353L75.4465 47.0836L77.0948 49.5902L79.6014 47.9419Z" fill="#9B9C9C"/>
<path d="M81.2496 50.4485L79.6013 47.9419L77.0947 49.5902L78.743 52.0968L81.2496 50.4485Z" fill="#393939"/>
<path d="M82.8978 52.9551L81.2495 50.4485L78.7429 52.0968L80.3912 54.6034L82.8978 52.9551Z" fill="#FBE555"/>
<path d="M84.5462 55.4617L82.8979 52.9551L80.3913 54.6034L82.0396 57.11L84.5462 55.4617Z" fill="#E7CB16"/>
<path d="M86.1944 57.9683L84.5461 55.4617L82.0395 57.11L83.6878 59.6166L86.1944 57.9683Z" fill="#E7CB16"/>
<path d="M87.8429 60.4749L86.1946 57.9683L83.688 59.6166L85.3363 62.1232L87.8429 60.4749Z" fill="#FBE555"/>
<path d="M89.4911 62.9815L87.8428 60.4749L85.3362 62.1232L86.9845 64.6298L89.4911 62.9815Z" fill="#393939"/>
<path d="M91.1395 65.4883L89.4912 62.9817L86.9846 64.63L88.6329 67.1366L91.1395 65.4883Z" fill="#9B9C9C"/>
<path d="M92.7877 67.9949L91.1394 65.4883L88.6328 67.1366L90.2811 69.6432L92.7877 67.9949Z" fill="black"/>
<path d="M73.7982 44.5769L72.1499 42.0703L69.6433 43.7186L71.2916 46.2252L73.7982 44.5769Z" fill="#171717"/>
<path d="M75.4464 47.0835L73.7981 44.5769L71.2915 46.2252L72.9398 48.7318L75.4464 47.0835Z" fill="#B2B6B7"/>
<path d="M77.0946 49.5901L75.4463 47.0835L72.9397 48.7318L74.588 51.2384L77.0946 49.5901Z" fill="#393939"/>
<path d="M78.743 52.0967L77.0947 49.5901L74.5881 51.2384L76.2364 53.745L78.743 52.0967Z" fill="#C7AF14"/>
<path d="M80.3912 54.6035L78.7429 52.0969L76.2363 53.7452L77.8846 56.2518L80.3912 54.6035Z" fill="#F2D72C"/>
<path d="M82.0397 57.1101L80.3914 54.6035L77.8847 56.2518L79.533 58.7584L82.0397 57.1101Z" fill="#E7CB16"/>
<path d="M83.6879 59.6167L82.0396 57.1101L79.5329 58.7584L81.1812 61.265L83.6879 59.6167Z" fill="#E7CB16"/>
<path d="M85.3363 62.1233L83.688 59.6167L81.1814 61.265L82.8297 63.7716L85.3363 62.1233Z" fill="#F2D72C"/>
<path d="M86.9845 64.6299L85.3362 62.1233L82.8296 63.7716L84.4779 66.2782L86.9845 64.6299Z" fill="#C7AF14"/>
<path d="M88.6329 67.1365L86.9846 64.6299L84.478 66.2782L86.1263 68.7848L88.6329 67.1365Z" fill="#393939"/>
<path d="M90.2811 69.6431L88.6328 67.1365L86.1262 68.7848L87.7745 71.2914L90.2811 69.6431Z" fill="#B2B6B7"/>
<path d="M91.9293 72.1497L90.281 69.6431L87.7744 71.2914L89.4227 73.798L91.9293 72.1497Z" fill="#171717"/>
<path d="M69.6432 43.7188L67.9949 41.2122L65.4883 42.8605L67.1366 45.3671L69.6432 43.7188Z" fill="#171717"/>
<path d="M71.2914 46.2254L69.6431 43.7188L67.1365 45.3671L68.7848 47.8737L71.2914 46.2254Z" fill="#B2B6B7"/>
<path d="M72.9398 48.732L71.2915 46.2253L68.7849 47.8736L70.4332 50.3803L72.9398 48.732Z" fill="#393939"/>
<path d="M74.588 51.2385L72.9397 48.7319L70.4331 50.3802L72.0814 52.8868L74.588 51.2385Z" fill="#393939"/>
<path d="M76.2364 53.7451L74.5881 51.2385L72.0815 52.8868L73.7298 55.3934L76.2364 53.7451Z" fill="#C7AF14"/>
<path d="M77.8846 56.2517L76.2363 53.7451L73.7297 55.3934L75.378 57.9L77.8846 56.2517Z" fill="#C7AF14"/>
<path d="M79.5331 58.7583L77.8848 56.2517L75.3782 57.9L77.0265 60.4066L79.5331 58.7583Z" fill="#E7CB16"/>
<path d="M81.1813 61.2649L79.533 58.7583L77.0263 60.4066L78.6746 62.9132L81.1813 61.2649Z" fill="#E7CB16"/>
<path d="M82.8297 63.7715L81.1814 61.2649L78.6748 62.9132L80.3231 65.4198L82.8297 63.7715Z" fill="#C7AF14"/>
<path d="M84.4779 66.2781L82.8296 63.7715L80.323 65.4198L81.9713 67.9264L84.4779 66.2781Z" fill="#C7AF14"/>
<path d="M86.1261 68.7847L84.4778 66.2781L81.9712 67.9264L83.6195 70.433L86.1261 68.7847Z" fill="#393939"/>
<path d="M87.7745 71.2915L86.1262 68.7849L83.6196 70.4332L85.2679 72.9398L87.7745 71.2915Z" fill="#393939"/>
<path d="M89.4227 73.7981L87.7744 71.2915L85.2678 72.9398L86.9161 75.4464L89.4227 73.7981Z" fill="#B2B6B7"/>
<path d="M91.0712 76.3047L89.4229 73.7981L86.9162 75.4464L88.5645 77.953L91.0712 76.3047Z" fill="#171717"/>
<path d="M67.1366 45.367L65.4883 42.8604L62.9817 44.5087L64.63 47.0153L67.1366 45.367Z" fill="#171717"/>
<path d="M68.7848 47.8736L67.1365 45.3669L64.6299 47.0152L66.2782 49.5219L68.7848 47.8736Z" fill="#9B9C9C"/>
<path d="M70.4332 50.3801L68.7849 47.8735L66.2783 49.5218L67.9266 52.0284L70.4332 50.3801Z" fill="#393939"/>
<path d="M72.0814 52.8867L70.4331 50.3801L67.9265 52.0284L69.5748 54.535L72.0814 52.8867Z" fill="#393939"/>
<path d="M73.7298 55.3933L72.0815 52.8867L69.5749 54.535L71.2232 57.0416L73.7298 55.3933Z" fill="#393939"/>
<path d="M75.378 57.8999L73.7297 55.3933L71.2231 57.0416L72.8714 59.5482L75.378 57.8999Z" fill="#C7AF14"/>
<path d="M77.0265 60.4068L75.3782 57.9001L72.8716 59.5484L74.5199 62.0551L77.0265 60.4068Z" fill="#E7CB16"/>
<path d="M78.6747 62.9134L77.0264 60.4067L74.5198 62.055L76.1681 64.5617L78.6747 62.9134Z" fill="#E7CB16"/>
<path d="M80.3229 65.4199L78.6746 62.9133L76.1679 64.5616L77.8162 67.0682L80.3229 65.4199Z" fill="#C7AF14"/>
<path d="M81.9713 67.9265L80.323 65.4199L77.8164 67.0682L79.4647 69.5748L81.9713 67.9265Z" fill="#393939"/>
<path d="M83.6195 70.4331L81.9712 67.9265L79.4646 69.5748L81.1129 72.0814L83.6195 70.4331Z" fill="#393939"/>
<path d="M85.2679 72.9397L83.6196 70.4331L81.113 72.0814L82.7613 74.588L85.2679 72.9397Z" fill="#393939"/>
<path d="M86.9161 75.4463L85.2678 72.9397L82.7612 74.588L84.4095 77.0946L86.9161 75.4463Z" fill="#9B9C9C"/>
<path d="M88.5646 77.9529L86.9163 75.4463L84.4096 77.0946L86.0579 79.6012L88.5646 77.9529Z" fill="#171717"/>
<path d="M64.63 47.0152L62.9817 44.5085L60.4751 46.1568L62.1234 48.6635L64.63 47.0152Z" fill="black"/>
<path d="M66.2782 49.522L64.6299 47.0154L62.1233 48.6637L63.7716 51.1703L66.2782 49.522Z" fill="#B2B6B7"/>
<path d="M67.9266 52.0286L66.2783 49.522L63.7717 51.1703L65.42 53.6769L67.9266 52.0286Z" fill="#9B9C9C"/>
<path d="M69.5748 54.5352L67.9265 52.0286L65.4199 53.6769L67.0682 56.1835L69.5748 54.5352Z" fill="#B2B6B7"/>
<path d="M71.2233 57.0418L69.575 54.5352L67.0683 56.1835L68.7166 58.6901L71.2233 57.0418Z" fill="#393939"/>
<path d="M72.8714 59.5484L71.2231 57.0417L68.7165 58.69L70.3648 61.1967L72.8714 59.5484Z" fill="#393939"/>
<path d="M74.5196 62.055L72.8713 59.5483L70.3647 61.1966L72.013 63.7033L74.5196 62.055Z" fill="#C7AF14"/>
<path d="M76.1681 64.5615L74.5198 62.0549L72.0132 63.7032L73.6615 66.2098L76.1681 64.5615Z" fill="#C7AF14"/>
<path d="M77.8163 67.0681L76.168 64.5615L73.6614 66.2098L75.3097 68.7164L77.8163 67.0681Z" fill="#393939"/>
<path d="M79.4647 69.5747L77.8164 67.0681L75.3098 68.7164L76.9581 71.223L79.4647 69.5747Z" fill="#393939"/>
<path d="M81.1129 72.0813L79.4646 69.5747L76.958 71.223L78.6063 73.7296L81.1129 72.0813Z" fill="#B2B6B7"/>
<path d="M82.7613 74.5879L81.113 72.0813L78.6064 73.7296L80.2547 76.2362L82.7613 74.5879Z" fill="#9B9C9C"/>
<path d="M84.4095 77.0945L82.7612 74.5879L80.2546 76.2362L81.9029 78.7428L84.4095 77.0945Z" fill="#B2B6B7"/>
<path d="M86.058 79.6013L84.4097 77.0947L81.9031 78.743L83.5514 81.2496L86.058 79.6013Z" fill="black"/>
<path d="M57.1783 41.1438L55.53 38.6372L53.0234 40.2855L54.6717 42.7921L57.1783 41.1438Z" fill="black"/>
<path d="M58.8268 43.6504L57.1785 41.1438L54.6719 42.7921L56.3202 45.2987L58.8268 43.6504Z" fill="black"/>
<path d="M60.475 46.157L58.8267 43.6504L56.32 45.2987L57.9683 47.8053L60.475 46.157Z" fill="black"/>
<path d="M63.7716 51.1702L62.1233 48.6636L59.6167 50.3119L61.265 52.8185L63.7716 51.1702Z" fill="black"/>
<path d="M65.42 53.6768L63.7717 51.1702L61.2651 52.8185L62.9134 55.3251L65.42 53.6768Z" fill="#9B9C9C"/>
<path d="M67.0682 56.1834L65.4199 53.6768L62.9133 55.3251L64.5616 57.8317L67.0682 56.1834Z" fill="#393939"/>
<path d="M68.7167 58.69L67.0684 56.1833L64.5617 57.8317L66.21 60.3383L68.7167 58.69Z" fill="#393939"/>
<path d="M70.3649 61.1966L68.7166 58.6899L66.2099 60.3382L67.8582 62.8449L70.3649 61.1966Z" fill="#FAF9F5"/>
<path d="M72.013 63.7031L70.3647 61.1965L67.8581 62.8448L69.5064 65.3514L72.013 63.7031Z" fill="#393939"/>
<path d="M73.6615 66.2097L72.0132 63.7031L69.5066 65.3514L71.1549 67.858L73.6615 66.2097Z" fill="#393939"/>
<path d="M75.3097 68.7166L73.6614 66.21L71.1548 67.8583L72.8031 70.3649L75.3097 68.7166Z" fill="#FAF9F5"/>
<path d="M76.9581 71.2232L75.3098 68.7166L72.8032 70.3649L74.4515 72.8715L76.9581 71.2232Z" fill="#393939"/>
<path d="M78.6063 73.7298L76.958 71.2231L74.4514 72.8714L76.0997 75.3781L78.6063 73.7298Z" fill="#393939"/>
<path d="M80.2547 76.2363L78.6064 73.7297L76.0998 75.378L77.7481 77.8846L80.2547 76.2363Z" fill="#9B9C9C"/>
<path d="M81.9029 78.7429L80.2546 76.2363L77.748 77.8846L79.3963 80.3912L81.9029 78.7429Z" fill="black"/>
<path d="M85.1996 83.7561L83.5513 81.2495L81.0447 82.8978L82.693 85.4044L85.1996 83.7561Z" fill="black"/>
<path d="M86.8478 86.2627L85.1995 83.7561L82.6929 85.4044L84.3412 87.911L86.8478 86.2627Z" fill="black"/>
<path d="M88.4962 88.7693L86.8479 86.2627L84.3413 87.911L85.9896 90.4176L88.4962 88.7693Z" fill="black"/>
<path d="M53.0235 40.2854L51.3752 37.7788L48.8686 39.4271L50.5169 41.9337L53.0235 40.2854Z" fill="black"/>
<path d="M54.6717 42.792L53.0234 40.2854L50.5168 41.9337L52.1651 44.4403L54.6717 42.792Z" fill="white"/>
<path d="M56.3202 45.2986L54.6719 42.792L52.1653 44.4403L53.8136 46.9469L56.3202 45.2986Z" fill="white"/>
<path d="M57.9684 47.8052L56.3201 45.2986L53.8135 46.9469L55.4618 49.4535L57.9684 47.8052Z" fill="black"/>
<path d="M59.6168 50.3118L57.9685 47.8052L55.4619 49.4535L57.1102 51.9601L59.6168 50.3118Z" fill="black"/>
<path d="M61.265 52.8184L59.6167 50.3118L57.1101 51.9601L58.7584 54.4667L61.265 52.8184Z" fill="#B2B6B7"/>
<path d="M62.9134 55.3252L61.2651 52.8186L58.7585 54.4669L60.4068 56.9735L62.9134 55.3252Z" fill="#393939"/>
<path d="M64.5616 57.8318L62.9133 55.3252L60.4067 56.9735L62.055 59.4801L64.5616 57.8318Z" fill="#393939"/>
<path d="M66.2098 60.3384L64.5615 57.8318L62.0549 59.4801L63.7032 61.9867L66.2098 60.3384Z" fill="#FAF9F5"/>
<path d="M67.8583 62.845L66.21 60.3384L63.7033 61.9867L65.3516 64.4933L67.8583 62.845Z" fill="#FAF9F5"/>
<path d="M69.5065 65.3516L67.8582 62.845L65.3515 64.4933L66.9998 66.9999L69.5065 65.3516Z" fill="#6F6F6F"/>
<path d="M71.1549 67.8582L69.5066 65.3516L67 66.9999L68.6483 69.5065L71.1549 67.8582Z" fill="#6F6F6F"/>
<path d="M72.8031 70.3648L71.1548 67.8582L68.6482 69.5065L70.2965 72.0131L72.8031 70.3648Z" fill="#FAF9F5"/>
<path d="M74.4515 72.8714L72.8032 70.3647L70.2966 72.013L71.9449 74.5197L74.4515 72.8714Z" fill="#FAF9F5"/>
<path d="M76.0997 75.378L74.4514 72.8713L71.9448 74.5196L73.5931 77.0263L76.0997 75.378Z" fill="#393939"/>
<path d="M77.7482 77.8845L76.0999 75.3779L73.5932 77.0262L75.2415 79.5328L77.7482 77.8845Z" fill="#393939"/>
<path d="M79.3963 80.3911L77.748 77.8845L75.2414 79.5328L76.8897 82.0394L79.3963 80.3911Z" fill="#B2B6B7"/>
<path d="M81.0445 82.8977L79.3962 80.3911L76.8896 82.0394L78.5379 84.546L81.0445 82.8977Z" fill="black"/>
<path d="M82.693 85.4046L81.0447 82.8979L78.5381 84.5462L80.1864 87.0529L82.693 85.4046Z" fill="black"/>
<path d="M84.3412 87.9112L82.6929 85.4045L80.1863 87.0528L81.8346 89.5595L84.3412 87.9112Z" fill="white"/>
<path d="M85.9896 90.4177L84.3413 87.9111L81.8347 89.5594L83.483 92.066L85.9896 90.4177Z" fill="white"/>
<path d="M87.6378 92.9243L85.9895 90.4177L83.4829 92.066L85.1312 94.5726L87.6378 92.9243Z" fill="black"/>
<path d="M48.8685 39.427L47.2202 36.9204L44.7136 38.5687L46.3619 41.0753L48.8685 39.427Z" fill="black"/>
<path d="M50.517 41.9336L48.8687 39.427L46.362 41.0753L48.0103 43.5819L50.517 41.9336Z" fill="white"/>
<path d="M52.1651 44.4405L50.5168 41.9338L48.0102 43.5821L49.6585 46.0888L52.1651 44.4405Z" fill="white"/>
<path d="M53.8136 46.947L52.1653 44.4404L49.6587 46.0887L51.307 48.5953L53.8136 46.947Z" fill="#171717"/>
<path d="M55.4618 49.4536L53.8135 46.947L51.3069 48.5953L52.9552 51.1019L55.4618 49.4536Z" fill="black"/>
<path d="M57.1102 51.9602L55.4619 49.4536L52.9553 51.1019L54.6036 53.6085L57.1102 51.9602Z" fill="#FAF9F5"/>
<path d="M58.7584 54.4668L57.1101 51.9602L54.6035 53.6085L56.2518 56.1151L58.7584 54.4668Z" fill="#595959"/>
<path d="M60.4066 56.9734L58.7583 54.4668L56.2517 56.1151L57.9 58.6217L60.4066 56.9734Z" fill="#6F6F6F"/>
<path d="M62.055 59.48L60.4067 56.9734L57.9001 58.6217L59.5484 61.1283L62.055 59.48Z" fill="#393939"/>
<path d="M63.7032 61.9866L62.0549 59.48L59.5483 61.1283L61.1966 63.6349L63.7032 61.9866Z" fill="#FAF9F5"/>
<path d="M65.3517 64.4932L63.7034 61.9866L61.1968 63.6349L62.8451 66.1415L65.3517 64.4932Z" fill="#FAF9F5"/>
<path d="M66.9999 66.9998L65.3516 64.4932L62.845 66.1415L64.4933 68.6481L66.9999 66.9998Z" fill="#595959"/>
<path d="M68.6483 69.5064L67 66.9998L64.4934 68.6481L66.1417 71.1547L68.6483 69.5064Z" fill="#595959"/>
<path d="M70.2965 72.013L68.6482 69.5063L66.1416 71.1546L67.7899 73.6613L70.2965 72.013Z" fill="#FAF9F5"/>
<path d="M71.9449 74.5198L70.2966 72.0132L67.79 73.6615L69.4383 76.1681L71.9449 74.5198Z" fill="#FAF9F5"/>
<path d="M73.5931 77.0264L71.9448 74.5198L69.4382 76.1681L71.0865 78.6747L73.5931 77.0264Z" fill="#393939"/>
<path d="M75.2413 79.533L73.593 77.0264L71.0864 78.6747L72.7347 81.1813L75.2413 79.533Z" fill="#6F6F6F"/>
<path d="M76.8898 82.0396L75.2415 79.533L72.7348 81.1813L74.3831 83.6879L76.8898 82.0396Z" fill="#595959"/>
<path d="M78.5379 84.5462L76.8896 82.0396L74.383 83.6879L76.0313 86.1945L78.5379 84.5462Z" fill="#FAF9F5"/>
<path d="M80.1864 87.0528L78.5381 84.5461L76.0315 86.1944L77.6798 88.7011L80.1864 87.0528Z" fill="black"/>
<path d="M81.8346 89.5593L80.1863 87.0527L77.6797 88.701L79.328 91.2076L81.8346 89.5593Z" fill="#171717"/>
<path d="M83.483 92.0659L81.8347 89.5593L79.3281 91.2076L80.9764 93.7142L83.483 92.0659Z" fill="white"/>
<path d="M85.1312 94.5725L83.4829 92.0659L80.9763 93.7142L82.6246 96.2208L85.1312 94.5725Z" fill="white"/>
<path d="M86.7796 97.0791L85.1313 94.5725L82.6247 96.2208L84.273 98.7274L86.7796 97.0791Z" fill="black"/>
<path d="M44.7137 38.5689L43.0654 36.0623L40.5588 37.7106L42.2071 40.2172L44.7137 38.5689Z" fill="black"/>
<path d="M46.3619 41.0755L44.7136 38.5688L42.207 40.2171L43.8553 42.7238L46.3619 41.0755Z" fill="white"/>
<path d="M48.0104 43.5821L46.3621 41.0754L43.8554 42.7237L45.5037 45.2304L48.0104 43.5821Z" fill="white"/>
<path d="M49.6586 46.0886L48.0103 43.582L45.5036 45.2303L47.1519 47.7369L49.6586 46.0886Z" fill="#171717"/>
<path d="M51.307 48.5952L49.6587 46.0886L47.1521 47.7369L48.8004 50.2435L51.307 48.5952Z" fill="black"/>
<path d="M52.9552 51.1018L51.3069 48.5952L48.8003 50.2435L50.4486 52.7501L52.9552 51.1018Z" fill="#FBE555"/>
<path d="M54.6036 53.6084L52.9553 51.1018L50.4487 52.7501L52.097 55.2567L54.6036 53.6084Z" fill="#EDEDED"/>
<path d="M56.2518 56.115L54.6035 53.6084L52.0969 55.2567L53.7452 57.7633L56.2518 56.115Z" fill="#FAF9F5"/>
<path d="M57.9 58.6216L56.2517 56.115L53.7451 57.7633L55.3934 60.2699L57.9 58.6216Z" fill="#595959"/>
<path d="M59.5484 61.1282L57.9001 58.6216L55.3935 60.2699L57.0418 62.7765L59.5484 61.1282Z" fill="#393939"/>
<path d="M61.1966 63.635L59.5483 61.1284L57.0417 62.7767L58.69 65.2833L61.1966 63.635Z" fill="#595959"/>
<path d="M62.8451 66.1416L61.1968 63.635L58.6902 65.2833L60.3385 67.7899L62.8451 66.1416Z" fill="#6F6F6F"/>
<path d="M64.4933 68.6482L62.845 66.1416L60.3384 67.7899L61.9867 70.2965L64.4933 68.6482Z" fill="#595959"/>
<path d="M66.1417 71.1548L64.4934 68.6482L61.9868 70.2965L63.6351 72.8031L66.1417 71.1548Z" fill="#595959"/>
<path d="M67.7899 73.6614L66.1416 71.1548L63.635 72.8031L65.2833 75.3097L67.7899 73.6614Z" fill="#6F6F6F"/>
<path d="M69.4381 76.168L67.7898 73.6614L65.2832 75.3097L66.9315 77.8163L69.4381 76.168Z" fill="#595959"/>
<path d="M71.0865 78.6746L69.4382 76.168L66.9316 77.8163L68.5799 80.3229L71.0865 78.6746Z" fill="#393939"/>
<path d="M72.7347 81.1812L71.0864 78.6746L68.5798 80.3229L70.2281 82.8295L72.7347 81.1812Z" fill="#595959"/>
<path d="M74.3832 83.6878L72.7349 81.1812L70.2283 82.8295L71.8766 85.3361L74.3832 83.6878Z" fill="#FAF9F5"/>
<path d="M76.0314 86.1944L74.3831 83.6877L71.8764 85.336L73.5247 87.8427L76.0314 86.1944Z" fill="#EDEDED"/>
<path d="M77.6798 88.7009L76.0315 86.1943L73.5249 87.8426L75.1732 90.3492L77.6798 88.7009Z" fill="#FBE555"/>
<path d="M79.328 91.2075L77.6797 88.7009L75.1731 90.3492L76.8214 92.8558L79.328 91.2075Z" fill="black"/>
<path d="M80.9764 93.7144L79.3281 91.2078L76.8215 92.8561L78.4698 95.3627L80.9764 93.7144Z" fill="#171717"/>
<path d="M82.6246 96.221L80.9763 93.7144L78.4697 95.3627L80.118 97.8693L82.6246 96.221Z" fill="white"/>
<path d="M84.2728 98.7276L82.6245 96.2209L80.1179 97.8692L81.7662 100.376L84.2728 98.7276Z" fill="white"/>
<path d="M85.9212 101.234L84.2729 98.7275L81.7663 100.376L83.4146 102.882L85.9212 101.234Z" fill="black"/>
<path d="M42.2071 40.2171L40.5588 37.7104L38.0522 39.3587L39.7005 41.8654L42.2071 40.2171Z" fill="black"/>
<path d="M43.8553 42.7237L42.207 40.217L39.7004 41.8653L41.3487 44.372L43.8553 42.7237Z" fill="white"/>
<path d="M45.5038 45.2302L43.8555 42.7236L41.3489 44.3719L42.9972 46.8785L45.5038 45.2302Z" fill="#171717"/>
<path d="M47.152 47.7368L45.5037 45.2302L42.997 46.8785L44.6454 49.3851L47.152 47.7368Z" fill="black"/>
<path d="M48.8004 50.2434L47.1521 47.7368L44.6455 49.3851L46.2938 51.8917L48.8004 50.2434Z" fill="#FAF9F5"/>
<path d="M50.4486 52.7503L48.8003 50.2437L46.2937 51.892L47.942 54.3986L50.4486 52.7503Z" fill="#F2D72C"/>
<path d="M52.0968 55.2569L50.4485 52.7502L47.9419 54.3985L49.5902 56.9052L52.0968 55.2569Z" fill="#FAF9F5"/>
<path d="M53.7452 57.7634L52.0969 55.2568L49.5903 56.9051L51.2386 59.4117L53.7452 57.7634Z" fill="#ACACAC"/>
<path d="M55.3934 60.27L53.7451 57.7634L51.2385 59.4117L52.8868 61.9183L55.3934 60.27Z" fill="#595959"/>
<path d="M57.0419 62.7766L55.3936 60.27L52.8869 61.9183L54.5352 64.4249L57.0419 62.7766Z" fill="#595959"/>
<path d="M58.69 65.2832L57.0417 62.7766L54.5351 64.4249L56.1834 66.9315L58.69 65.2832Z" fill="#6F6F6F"/>
<path d="M60.3385 67.7898L58.6902 65.2832L56.1836 66.9315L57.8319 69.4381L60.3385 67.7898Z" fill="#393939"/>
<path d="M61.9867 70.2964L60.3384 67.7898L57.8318 69.4381L59.4801 71.9447L61.9867 70.2964Z" fill="#C7AF14"/>
<path d="M63.6351 72.803L61.9868 70.2964L59.4802 71.9447L61.1285 74.4513L63.6351 72.803Z" fill="#C7AF14"/>
<path d="M65.2833 75.3096L63.635 72.803L61.1284 74.4513L62.7767 76.9579L65.2833 75.3096Z" fill="#393939"/>
<path d="M66.9315 77.8162L65.2832 75.3096L62.7766 76.9579L64.4249 79.4645L66.9315 77.8162Z" fill="#6F6F6F"/>
<path d="M68.5799 80.323L66.9316 77.8164L64.425 79.4647L66.0733 81.9713L68.5799 80.323Z" fill="#595959"/>
<path d="M70.2281 82.8296L68.5798 80.323L66.0732 81.9713L67.7215 84.4779L70.2281 82.8296Z" fill="#595959"/>
<path d="M71.8766 85.3362L70.2283 82.8296L67.7217 84.4779L69.37 86.9845L71.8766 85.3362Z" fill="#ACACAC"/>
<path d="M73.5248 87.8428L71.8765 85.3362L69.3699 86.9845L71.0182 89.4911L73.5248 87.8428Z" fill="#FAF9F5"/>
<path d="M75.1732 90.3494L73.5249 87.8428L71.0183 89.4911L72.6666 91.9977L75.1732 90.3494Z" fill="#F2D72C"/>
<path d="M76.8214 92.856L75.1731 90.3494L72.6665 91.9977L74.3148 94.5043L76.8214 92.856Z" fill="#FAF9F5"/>
<path d="M78.4696 95.3626L76.8213 92.856L74.3147 94.5043L75.963 97.0109L78.4696 95.3626Z" fill="black"/>
<path d="M80.118 97.8692L78.4697 95.3625L75.9631 97.0108L77.6114 99.5175L80.118 97.8692Z" fill="#171717"/>
<path d="M81.7662 100.376L80.1179 97.8691L77.6113 99.5174L79.2596 102.024L81.7662 100.376Z" fill="white"/>
<path d="M83.4147 102.882L81.7664 100.376L79.2597 102.024L80.908 104.531L83.4147 102.882Z" fill="black"/>
<path d="M39.7005 41.8655L38.0522 39.3589L35.5456 41.0072L37.1939 43.5138L39.7005 41.8655Z" fill="#171717"/>
<path d="M41.3487 44.3721L39.7004 41.8655L37.1938 43.5138L38.8421 46.0204L41.3487 44.3721Z" fill="#171717"/>
<path d="M42.9972 46.8787L41.3489 44.3721L38.8423 46.0204L40.4906 48.527L42.9972 46.8787Z" fill="black"/>
<path d="M44.6454 49.3853L42.9971 46.8787L40.4905 48.527L42.1388 51.0336L44.6454 49.3853Z" fill="#FBE555"/>
<path d="M46.2936 51.8919L44.6453 49.3853L42.1387 51.0336L43.787 53.5402L46.2936 51.8919Z" fill="#EDEDED"/>
<path d="M47.942 54.3985L46.2937 51.8918L43.7871 53.5401L45.4354 56.0468L47.942 54.3985Z" fill="#F2D72C"/>
<path d="M49.5902 56.905L47.9419 54.3984L45.4353 56.0467L47.0836 58.5534L49.5902 56.905Z" fill="#EDEDED"/>
<path d="M51.2386 59.4116L49.5903 56.905L47.0837 58.5533L48.732 61.0599L51.2386 59.4116Z" fill="#ACACAC"/>
<path d="M52.8868 61.9182L51.2385 59.4116L48.7319 61.0599L50.3802 63.5665L52.8868 61.9182Z" fill="#6F6F6F"/>
<path d="M54.5353 64.4248L52.887 61.9182L50.3804 63.5665L52.0287 66.0731L54.5353 64.4248Z" fill="#595959"/>
<path d="M56.1835 66.9314L54.5352 64.4248L52.0285 66.0731L53.6768 68.5797L56.1835 66.9314Z" fill="#393939"/>
<path d="M57.8319 69.4383L56.1836 66.9316L53.677 68.5799L55.3253 71.0866L57.8319 69.4383Z" fill="#C7AF14"/>
<path d="M59.4801 71.9448L57.8318 69.4382L55.3252 71.0865L56.9735 73.5931L59.4801 71.9448Z" fill="#FBE555"/>
<path d="M61.1283 74.4514L59.48 71.9448L56.9734 73.5931L58.6217 76.0997L61.1283 74.4514Z" fill="#FFFBE0"/>
<path d="M62.7767 76.958L61.1284 74.4514L58.6218 76.0997L60.2701 78.6063L62.7767 76.958Z" fill="#C7AF14"/>
<path d="M64.4249 79.4646L62.7766 76.958L60.27 78.6063L61.9183 81.1129L64.4249 79.4646Z" fill="#393939"/>
<path d="M66.0733 81.9712L64.425 79.4646L61.9184 81.1129L63.5667 83.6195L66.0733 81.9712Z" fill="#595959"/>
<path d="M67.7215 84.4778L66.0732 81.9712L63.5666 83.6195L65.2149 86.1261L67.7215 84.4778Z" fill="#6F6F6F"/>
<path d="M69.37 86.9844L67.7217 84.4778L65.2151 86.1261L66.8634 88.6327L69.37 86.9844Z" fill="#ACACAC"/>
<path d="M71.0182 89.491L69.3699 86.9844L66.8633 88.6327L68.5116 91.1393L71.0182 89.491Z" fill="#EDEDED"/>
<path d="M72.6666 91.9976L71.0183 89.491L68.5117 91.1393L70.16 93.6459L72.6666 91.9976Z" fill="#F2D72C"/>
<path d="M74.3148 94.5042L72.6665 91.9976L70.1599 93.6459L71.8082 96.1525L74.3148 94.5042Z" fill="#EDEDED"/>
<path d="M75.963 97.0108L74.3147 94.5042L71.8081 96.1525L73.4564 98.6591L75.963 97.0108Z" fill="#FBE555"/>
<path d="M77.6114 99.5176L75.9631 97.011L73.4565 98.6593L75.1048 101.166L77.6114 99.5176Z" fill="black"/>
<path d="M79.2596 102.024L77.6113 99.5176L75.1047 101.166L76.753 103.672L79.2596 102.024Z" fill="#171717"/>
<path d="M80.9081 104.531L79.2598 102.024L76.7532 103.672L78.4015 106.179L80.9081 104.531Z" fill="#171717"/>
<path d="M35.5455 41.0071L33.8972 38.5005L31.3906 40.1488L33.0389 42.6554L35.5455 41.0071Z" fill="#171717"/>
<path d="M37.194 43.5137L35.5457 41.0071L33.039 42.6554L34.6873 45.162L37.194 43.5137Z" fill="#6F6F6F"/>
<path d="M38.8421 46.0203L37.1938 43.5137L34.6872 45.162L36.3355 47.6686L38.8421 46.0203Z" fill="#6F6F6F"/>
<path d="M40.4906 48.5269L38.8423 46.0203L36.3357 47.6686L37.984 50.1752L40.4906 48.5269Z" fill="#FAF9F5"/>
<path d="M42.1388 51.0335L40.4905 48.5269L37.9839 50.1752L39.6322 52.6818L42.1388 51.0335Z" fill="#F2D72C"/>
<path d="M43.787 53.5401L42.1387 51.0334L39.6321 52.6817L41.2804 55.1884L43.787 53.5401Z" fill="#EDEDED"/>
<path d="M45.4354 56.0467L43.7871 53.54L41.2805 55.1883L42.9288 57.695L45.4354 56.0467Z" fill="#C7AF14"/>
<path d="M47.0836 58.5535L45.4353 56.0469L42.9287 57.6952L44.577 60.2018L47.0836 58.5535Z" fill="#FAF9F5"/>
<path d="M48.732 61.0601L47.0837 58.5535L44.5771 60.2018L46.2254 62.7084L48.732 61.0601Z" fill="#ACACAC"/>
<path d="M50.3802 63.5667L48.7319 61.0601L46.2253 62.7084L47.8736 65.215L50.3802 63.5667Z" fill="#595959"/>
<path d="M52.0287 66.0733L50.3804 63.5667L47.8738 65.215L49.5221 67.7216L52.0287 66.0733Z" fill="#393939"/>
<path d="M53.6769 68.5799L52.0286 66.0732L49.522 67.7215L51.1703 70.2282L53.6769 68.5799Z" fill="#C7AF14"/>
<path d="M55.3251 71.0864L53.6768 68.5798L51.1701 70.2281L52.8184 72.7347L55.3251 71.0864Z" fill="#FBE555"/>
<path d="M56.9735 73.593L55.3252 71.0864L52.8186 72.7347L54.4669 75.2413L56.9735 73.593Z" fill="#E7CB16"/>
<path d="M58.6217 76.0996L56.9734 73.593L54.4668 75.2413L56.1151 77.7479L58.6217 76.0996Z" fill="#E7CB16"/>
<path d="M60.2701 78.6062L58.6218 76.0996L56.1152 77.7479L57.7635 80.2545L60.2701 78.6062Z" fill="#FBE555"/>
<path d="M61.9183 81.1128L60.27 78.6062L57.7634 80.2545L59.4117 82.7611L61.9183 81.1128Z" fill="#C7AF14"/>
<path d="M63.5668 83.6194L61.9185 81.1128L59.4118 82.7611L61.0601 85.2677L63.5668 83.6194Z" fill="#393939"/>
<path d="M65.215 86.126L63.5667 83.6194L61.06 85.2677L62.7083 87.7743L65.215 86.126Z" fill="#595959"/>
<path d="M66.8634 88.6328L65.2151 86.1262L62.7085 87.7745L64.3568 90.2811L66.8634 88.6328Z" fill="#ACACAC"/>
<path d="M68.5116 91.1394L66.8633 88.6328L64.3567 90.2811L66.005 92.7877L68.5116 91.1394Z" fill="#FAF9F5"/>
<path d="M70.1598 93.646L68.5115 91.1394L66.0049 92.7877L67.6532 95.2943L70.1598 93.646Z" fill="#C7AF14"/>
<path d="M71.8082 96.1526L70.1599 93.646L67.6533 95.2943L69.3016 97.8009L71.8082 96.1526Z" fill="#EDEDED"/>
<path d="M73.4564 98.6592L71.8081 96.1526L69.3015 97.8009L70.9498 100.308L73.4564 98.6592Z" fill="#F2D72C"/>
<path d="M75.1048 101.166L73.4565 98.6592L70.9499 100.307L72.5982 102.814L75.1048 101.166Z" fill="#FAF9F5"/>
<path d="M76.753 103.672L75.1047 101.166L72.5981 102.814L74.2464 105.321L76.753 103.672Z" fill="#6F6F6F"/>
<path d="M78.4015 106.179L76.7532 103.672L74.2466 105.321L75.8949 107.827L78.4015 106.179Z" fill="#6F6F6F"/>
<path d="M80.0497 108.686L78.4014 106.179L75.8948 107.827L77.5431 110.334L80.0497 108.686Z" fill="#171717"/>
<path d="M31.3907 40.1487L29.7424 37.6421L27.2358 39.2904L28.8841 41.797L31.3907 40.1487Z" fill="#171717"/>
<path d="M33.0389 42.6553L31.3906 40.1487L28.884 41.797L30.5323 44.3036L33.0389 42.6553Z" fill="#6F6F6F"/>
<path d="M34.6874 45.1619L33.0391 42.6553L30.5325 44.3036L32.1808 46.8102L34.6874 45.1619Z" fill="#6F6F6F"/>
<path d="M36.3356 47.6687L34.6873 45.1621L32.1806 46.8104L33.8289 49.317L36.3356 47.6687Z" fill="#B2B6B7"/>
<path d="M37.9837 50.1753L36.3354 47.6687L33.8288 49.317L35.4771 51.8236L37.9837 50.1753Z" fill="#FAF9F5"/>
<path d="M39.6322 52.6819L37.9839 50.1753L35.4773 51.8236L37.1256 54.3302L39.6322 52.6819Z" fill="#F2D72C"/>
<path d="M41.2804 55.1885L39.6321 52.6819L37.1255 54.3302L38.7738 56.8368L41.2804 55.1885Z" fill="#EDEDED"/>
<path d="M42.9288 57.6951L41.2805 55.1885L38.7739 56.8368L40.4222 59.3434L42.9288 57.6951Z" fill="#FAF9F5"/>
<path d="M44.577 60.2017L42.9287 57.6951L40.4221 59.3434L42.0704 61.85L44.577 60.2017Z" fill="#FAF9F5"/>
<path d="M46.2254 62.7083L44.5771 60.2017L42.0705 61.85L43.7188 64.3566L46.2254 62.7083Z" fill="#EDEDED"/>
<path d="M47.8736 65.2149L46.2253 62.7083L43.7187 64.3566L45.367 66.8632L47.8736 65.2149Z" fill="#595959"/>
<path d="M49.5221 67.7215L47.8738 65.2148L45.3672 66.8631L47.0155 69.3698L49.5221 67.7215Z" fill="#393939"/>
<path d="M51.1703 70.228L49.522 67.7214L47.0154 69.3697L48.6637 71.8763L51.1703 70.228Z" fill="#C7AF14"/>
<path d="M52.8185 72.7346L51.1702 70.228L48.6636 71.8763L50.3119 74.3829L52.8185 72.7346Z" fill="#F2D72C"/>
<path d="M54.4669 75.2412L52.8186 72.7346L50.312 74.3829L51.9603 76.8895L54.4669 75.2412Z" fill="#E7CB16"/>
<path d="M56.1151 77.7481L54.4668 75.2415L51.9602 76.8898L53.6085 79.3964L56.1151 77.7481Z" fill="#E7CB16"/>
<path d="M57.7635 80.2547L56.1152 77.748L53.6086 79.3963L55.2569 81.903L57.7635 80.2547Z" fill="#F2D72C"/>
<path d="M59.4117 82.7613L57.7634 80.2546L55.2568 81.9029L56.9051 84.4096L59.4117 82.7613Z" fill="#C7AF14"/>
<path d="M61.0602 85.2678L59.4119 82.7612L56.9053 84.4095L58.5536 86.9161L61.0602 85.2678Z" fill="#393939"/>
<path d="M62.7084 87.7744L61.0601 85.2678L58.5534 86.9161L60.2017 89.4227L62.7084 87.7744Z" fill="#595959"/>
<path d="M64.3566 90.281L62.7083 87.7744L60.2016 89.4227L61.8499 91.9293L64.3566 90.281Z" fill="#EDEDED"/>
<path d="M66.005 92.7876L64.3567 90.281L61.8501 91.9293L63.4984 94.4359L66.005 92.7876Z" fill="#FAF9F5"/>
<path d="M67.6532 95.2942L66.0049 92.7876L63.4983 94.4359L65.1466 96.9425L67.6532 95.2942Z" fill="#FAF9F5"/>
<path d="M69.3016 97.8008L67.6533 95.2942L65.1467 96.9425L66.795 99.4491L69.3016 97.8008Z" fill="#EDEDED"/>
<path d="M70.9498 100.307L69.3015 97.8008L66.7949 99.4491L68.4432 101.956L70.9498 100.307Z" fill="#F2D72C"/>
<path d="M72.5983 102.814L70.95 100.307L68.4433 101.956L70.0916 104.462L72.5983 102.814Z" fill="#FAF9F5"/>
<path d="M74.2464 105.321L72.5981 102.814L70.0915 104.462L71.7398 106.969L74.2464 105.321Z" fill="#B2B6B7"/>
<path d="M75.8949 107.827L74.2466 105.321L71.74 106.969L73.3883 109.476L75.8949 107.827Z" fill="#6F6F6F"/>
<path d="M77.5431 110.334L75.8948 107.827L73.3882 109.476L75.0365 111.982L77.5431 110.334Z" fill="#6F6F6F"/>
<path d="M79.1913 112.841L77.543 110.334L75.0364 111.982L76.6847 114.489L79.1913 112.841Z" fill="#171717"/>
<path d="M27.2357 39.2905L25.5874 36.7839L23.0808 38.4322L24.7291 40.9388L27.2357 39.2905Z" fill="#171717"/>
<path d="M28.8841 41.7971L27.2358 39.2905L24.7292 40.9388L26.3775 43.4454L28.8841 41.7971Z" fill="#6F6F6F"/>
<path d="M30.5323 44.3037L28.884 41.7971L26.3774 43.4454L28.0257 45.952L30.5323 44.3037Z" fill="#6F6F6F"/>
<path d="M32.1805 46.8103L30.5322 44.3037L28.0256 45.952L29.6739 48.4586L32.1805 46.8103Z" fill="#FFEA63"/>
<path d="M33.829 49.3169L32.1807 46.8103L29.6741 48.4586L31.3224 50.9652L33.829 49.3169Z" fill="#B2B6B7"/>
<path d="M35.4772 51.8235L33.8289 49.3169L31.3222 50.9652L32.9705 53.4718L35.4772 51.8235Z" fill="#EDEDED"/>
<path d="M37.1256 54.3301L35.4773 51.8235L32.9707 53.4718L34.619 55.9784L37.1256 54.3301Z" fill="#C7AF14"/>
<path d="M38.7738 56.8367L37.1255 54.3301L34.6189 55.9784L36.2672 58.485L38.7738 56.8367Z" fill="#FAF9F5"/>
<path d="M40.4222 59.3433L38.7739 56.8367L36.2673 58.485L37.9156 60.9916L40.4222 59.3433Z" fill="#B2B6B7"/>
<path d="M42.0704 61.8499L40.4221 59.3433L37.9155 60.9916L39.5638 63.4982L42.0704 61.8499Z" fill="#393939"/>
<path d="M43.7189 64.3567L42.0706 61.8501L39.5639 63.4984L41.2122 66.005L43.7189 64.3567Z" fill="black"/>
<path d="M45.3671 66.8633L43.7188 64.3567L41.2121 66.005L42.8604 68.5116L45.3671 66.8633Z" fill="#6F6F6F"/>
<path d="M47.0152 69.3699L45.3669 66.8633L42.8603 68.5116L44.5086 71.0182L47.0152 69.3699Z" fill="#595959"/>
<path d="M48.6637 71.8765L47.0154 69.3699L44.5088 71.0182L46.1571 73.5248L48.6637 71.8765Z" fill="#393939"/>
<path d="M50.3119 74.3831L48.6636 71.8765L46.157 73.5248L47.8053 76.0314L50.3119 74.3831Z" fill="#C7AF14"/>
<path d="M51.9603 76.8897L50.312 74.3831L47.8054 76.0314L49.4537 78.538L51.9603 76.8897Z" fill="#E7CB16"/>
<path d="M53.6085 79.3963L51.9602 76.8896L49.4536 78.5379L51.1019 81.0446L53.6085 79.3963Z" fill="#E7CB16"/>
<path d="M55.2569 81.9029L53.6086 79.3962L51.102 81.0445L52.7503 83.5512L55.2569 81.9029Z" fill="#C7AF14"/>
<path d="M56.9051 84.4094L55.2568 81.9028L52.7502 83.5511L54.3985 86.0577L56.9051 84.4094Z" fill="#393939"/>
<path d="M58.5533 86.916L56.905 84.4094L54.3984 86.0577L56.0467 88.5643L58.5533 86.916Z" fill="#595959"/>
<path d="M60.2018 89.4226L58.5535 86.916L56.0469 88.5643L57.6952 91.0709L60.2018 89.4226Z" fill="#6F6F6F"/>
<path d="M61.85 91.9292L60.2017 89.4226L57.695 91.0709L59.3433 93.5775L61.85 91.9292Z" fill="black"/>
<path d="M63.4984 94.4361L61.8501 91.9294L59.3435 93.5777L60.9918 96.0844L63.4984 94.4361Z" fill="#393939"/>
<path d="M65.1466 96.9426L63.4983 94.436L60.9917 96.0843L62.64 98.5909L65.1466 96.9426Z" fill="#B2B6B7"/>
<path d="M66.795 99.4492L65.1467 96.9426L62.6401 98.5909L64.2884 101.098L66.795 99.4492Z" fill="#FAF9F5"/>
<path d="M68.4432 101.956L66.7949 99.4492L64.2883 101.098L65.9366 103.604L68.4432 101.956Z" fill="#C7AF14"/>
<path d="M70.0917 104.462L68.4434 101.956L65.9367 103.604L67.585 106.111L70.0917 104.462Z" fill="#EDEDED"/>
<path d="M71.7399 106.969L70.0916 104.462L67.5849 106.111L69.2332 108.617L71.7399 106.969Z" fill="#B2B6B7"/>
<path d="M73.388 109.476L71.7397 106.969L69.2331 108.617L70.8814 111.124L73.388 109.476Z" fill="#FFEA63"/>
<path d="M75.0365 111.982L73.3882 109.476L70.8816 111.124L72.5299 113.63L75.0365 111.982Z" fill="#6F6F6F"/>
<path d="M76.6847 114.489L75.0364 111.982L72.5298 113.63L74.1781 116.137L76.6847 114.489Z" fill="#6F6F6F"/>
<path d="M78.3331 116.995L76.6848 114.489L74.1782 116.137L75.8265 118.644L78.3331 116.995Z" fill="#171717"/>
<path d="M24.7291 40.9387L23.0808 38.4321L20.5742 40.0804L22.2225 42.587L24.7291 40.9387Z" fill="black"/>
<path d="M26.3775 43.4453L24.7292 40.9387L22.2226 42.587L23.8709 45.0936L26.3775 43.4453Z" fill="#6F6F6F"/>
<path d="M28.0257 45.9519L26.3774 43.4453L23.8708 45.0936L25.5191 47.6002L28.0257 45.9519Z" fill="#FFEA63"/>
<path d="M29.6739 48.4585L28.0256 45.9519L25.519 47.6002L27.1673 50.1068L29.6739 48.4585Z" fill="#B2B6B7"/>
<path d="M31.3224 50.9651L29.6741 48.4585L27.1675 50.1068L28.8158 52.6134L31.3224 50.9651Z" fill="#B2B6B7"/>
<path d="M32.9706 53.4719L31.3223 50.9653L28.8157 52.6136L30.464 55.1202L32.9706 53.4719Z" fill="#EDEDED"/>
<path d="M34.619 55.9785L32.9707 53.4719L30.4641 55.1202L32.1124 57.6268L34.619 55.9785Z" fill="black"/>
<path d="M36.2672 58.4851L34.6189 55.9785L32.1123 57.6268L33.7606 60.1334L36.2672 58.4851Z" fill="#393939"/>
<path d="M37.9156 60.9917L36.2673 58.4851L33.7607 60.1334L35.409 62.64L37.9156 60.9917Z" fill="#B2B6B7"/>
<path d="M39.5638 63.4983L37.9155 60.9917L35.4089 62.64L37.0572 65.1466L39.5638 63.4983Z" fill="#FBFEFF"/>
<path d="M41.212 66.0049L39.5637 63.4983L37.0571 65.1466L38.7054 67.6532L41.212 66.0049Z" fill="black"/>
<path d="M42.8605 68.5115L41.2122 66.0049L38.7055 67.6532L40.3538 70.1598L42.8605 68.5115Z" fill="black"/>
<path d="M44.5087 71.0181L42.8604 68.5115L40.3537 70.1598L42.002 72.6664L44.5087 71.0181Z" fill="black"/>
<path d="M46.1571 73.5247L44.5088 71.0181L42.0022 72.6664L43.6505 75.173L46.1571 73.5247Z" fill="#595959"/>
<path d="M47.8053 76.0313L46.157 73.5247L43.6504 75.173L45.2987 77.6796L47.8053 76.0313Z" fill="#393939"/>
<path d="M49.4537 78.5379L47.8054 76.0312L45.2988 77.6796L46.9471 80.1862L49.4537 78.5379Z" fill="#E7CB16"/>
<path d="M51.1019 81.0445L49.4536 78.5378L46.947 80.1861L48.5953 82.6928L51.1019 81.0445Z" fill="#E7CB16"/>
<path d="M52.7504 83.5513L51.1021 81.0447L48.5954 82.693L50.2437 85.1996L52.7504 83.5513Z" fill="#393939"/>
<path d="M54.3985 86.0579L52.7502 83.5513L50.2436 85.1996L51.8919 87.7062L54.3985 86.0579Z" fill="#595959"/>
<path d="M56.0467 88.5645L54.3984 86.0579L51.8918 87.7062L53.5401 90.2128L56.0467 88.5645Z" fill="black"/>
<path d="M57.6952 91.0711L56.0469 88.5645L53.5403 90.2128L55.1886 92.7194L57.6952 91.0711Z" fill="black"/>
<path d="M59.3434 93.5777L57.6951 91.071L55.1885 92.7193L56.8368 95.226L59.3434 93.5777Z" fill="black"/>
<path d="M60.9918 96.0842L59.3435 93.5776L56.8369 95.2259L58.4852 97.7325L60.9918 96.0842Z" fill="#FBFEFF"/>
<path d="M62.64 98.5908L60.9917 96.0842L58.4851 97.7325L60.1334 100.239L62.64 98.5908Z" fill="#B2B6B7"/>
<path d="M64.2884 101.097L62.6401 98.5908L60.1335 100.239L61.7818 102.746L64.2884 101.097Z" fill="#393939"/>
<path d="M65.9366 103.604L64.2883 101.097L61.7817 102.746L63.43 105.252L65.9366 103.604Z" fill="black"/>
<path d="M67.5848 106.111L65.9365 103.604L63.4299 105.252L65.0782 107.759L67.5848 106.111Z" fill="#EDEDED"/>
<path d="M69.2333 108.617L67.585 106.111L65.0783 107.759L66.7266 110.266L69.2333 108.617Z" fill="#B2B6B7"/>
<path d="M70.8815 111.124L69.2332 108.617L66.7265 110.265L68.3748 112.772L70.8815 111.124Z" fill="#B2B6B7"/>
<path d="M72.5299 113.631L70.8816 111.124L68.375 112.772L70.0233 115.279L72.5299 113.631Z" fill="#FFEA63"/>
<path d="M74.1781 116.137L72.5298 113.631L70.0232 115.279L71.6715 117.786L74.1781 116.137Z" fill="#6F6F6F"/>
<path d="M75.8265 118.644L74.1782 116.137L71.6716 117.786L73.3199 120.292L75.8265 118.644Z" fill="black"/>
<path d="M22.2225 42.5872L20.5742 40.0806L18.0676 41.7289L19.7159 44.2355L22.2225 42.5872Z" fill="black"/>
<path d="M23.8707 45.0938L22.2224 42.5872L19.7158 44.2355L21.3641 46.7421L23.8707 45.0938Z" fill="#6F6F6F"/>
<path d="M25.5192 47.6004L23.8708 45.0938L21.3642 46.7421L23.0125 49.2487L25.5192 47.6004Z" fill="#FFEA63"/>
<path d="M27.1673 50.107L25.519 47.6003L23.0124 49.2486L24.6607 51.7553L27.1673 50.107Z" fill="#B2B6B7"/>
<path d="M28.8158 52.6135L27.1675 50.1069L24.6609 51.7552L26.3092 54.2618L28.8158 52.6135Z" fill="#B2B6B7"/>
<path d="M30.464 55.1201L28.8157 52.6135L26.3091 54.2618L27.9574 56.7684L30.464 55.1201Z" fill="#EDEDED"/>
<path d="M32.1124 57.6267L30.4641 55.1201L27.9575 56.7684L29.6058 59.275L32.1124 57.6267Z" fill="black"/>
<path d="M33.7606 60.1333L32.1123 57.6267L29.6057 59.275L31.254 61.7816L33.7606 60.1333Z" fill="#B2B6B7"/>
<path d="M35.4088 62.6399L33.7605 60.1333L31.2539 61.7816L32.9022 64.2882L35.4088 62.6399Z" fill="#FBFEFF"/>
<path d="M37.0572 65.1465L35.4089 62.6399L32.9023 64.2882L34.5506 66.7948L37.0572 65.1465Z" fill="#FBFEFF"/>
<path d="M38.7054 67.6531L37.0571 65.1465L34.5505 66.7948L36.1988 69.3014L38.7054 67.6531Z" fill="black"/>
<path d="M40.3539 70.1597L38.7056 67.6531L36.199 69.3014L37.8473 71.808L40.3539 70.1597Z" fill="#FBE555"/>
<path d="M42.0021 72.6665L40.3538 70.1599L37.8471 71.8082L39.4954 74.3148L42.0021 72.6665Z" fill="black"/>
<path d="M43.6505 75.1731L42.0022 72.6665L39.4956 74.3148L41.1439 76.8214L43.6505 75.1731Z" fill="#6F6F6F"/>
<path d="M45.2987 77.6797L43.6504 75.1731L41.1438 76.8214L42.7921 79.328L45.2987 77.6797Z" fill="#393939"/>
<path d="M46.9471 80.1863L45.2988 77.6797L42.7922 79.328L44.4405 81.8346L46.9471 80.1863Z" fill="#E7CB16"/>
<path d="M48.5953 82.6929L46.947 80.1863L44.4404 81.8346L46.0887 84.3412L48.5953 82.6929Z" fill="#E7CB16"/>
<path d="M50.2435 85.1995L48.5952 82.6929L46.0886 84.3412L47.7369 86.8478L50.2435 85.1995Z" fill="#393939"/>
<path d="M51.892 87.7061L50.2437 85.1995L47.737 86.8478L49.3853 89.3544L51.892 87.7061Z" fill="#6F6F6F"/>
<path d="M53.5401 90.2127L51.8918 87.7061L49.3852 89.3544L51.0335 91.861L53.5401 90.2127Z" fill="black"/>
<path d="M55.1886 92.7193L53.5403 90.2126L51.0337 91.8609L52.682 94.3676L55.1886 92.7193Z" fill="#FBE555"/>
<path d="M56.8368 95.2259L55.1885 92.7192L52.6819 94.3675L54.3302 96.8742L56.8368 95.2259Z" fill="black"/>
<path d="M58.4852 97.7324L56.8369 95.2258L54.3303 96.8741L55.9786 99.3807L58.4852 97.7324Z" fill="#FBFEFF"/>
<path d="M60.1334 100.239L58.4851 97.7324L55.9785 99.3807L57.6268 101.887L60.1334 100.239Z" fill="#FBFEFF"/>
<path d="M61.7818 102.746L60.1335 100.239L57.6269 101.888L59.2752 104.394L61.7818 102.746Z" fill="#B2B6B7"/>
<path d="M63.43 105.252L61.7817 102.746L59.2751 104.394L60.9234 106.901L63.43 105.252Z" fill="black"/>
<path d="M65.0782 107.759L63.4299 105.252L60.9233 106.901L62.5716 109.407L65.0782 107.759Z" fill="#EDEDED"/>
<path d="M66.7267 110.266L65.0784 107.759L62.5718 109.407L64.2201 111.914L66.7267 110.266Z" fill="#B2B6B7"/>
<path d="M68.3749 112.772L66.7266 110.266L64.22 111.914L65.8683 114.421L68.3749 112.772Z" fill="#B2B6B7"/>
<path d="M70.0233 115.279L68.375 112.772L65.8684 114.421L67.5167 116.927L70.0233 115.279Z" fill="#FFEA63"/>
<path d="M71.6715 117.785L70.0232 115.279L67.5166 116.927L69.1649 119.434L71.6715 117.785Z" fill="#6F6F6F"/>
<path d="M73.3199 120.292L71.6716 117.785L69.165 119.434L70.8133 121.94L73.3199 120.292Z" fill="black"/>
<path d="M21.3641 46.742L19.7158 44.2354L17.2092 45.8837L18.8575 48.3903L21.3641 46.742Z" fill="black"/>
<path d="M23.0126 49.2486L21.3643 46.7419L18.8576 48.3902L20.5059 50.8969L23.0126 49.2486Z" fill="#6F6F6F"/>
<path d="M24.6608 51.7551L23.0125 49.2485L20.5058 50.8968L22.1541 53.4034L24.6608 51.7551Z" fill="#FFEA63"/>
<path d="M26.3092 54.2617L24.6609 51.7551L22.1543 53.4034L23.8026 55.91L26.3092 54.2617Z" fill="#B2B6B7"/>
<path d="M27.9574 56.7683L26.3091 54.2617L23.8025 55.91L25.4508 58.4166L27.9574 56.7683Z" fill="#FAF9F5"/>
<path d="M29.6058 59.2749L27.9575 56.7683L25.4509 58.4166L27.0992 60.9232L29.6058 59.2749Z" fill="black"/>
<path d="M31.254 61.7818L29.6057 59.2751L27.0991 60.9234L28.7474 63.4301L31.254 61.7818Z" fill="#FBFEFF"/>
<path d="M32.9022 64.2884L31.2539 61.7817L28.7473 63.43L30.3956 65.9367L32.9022 64.2884Z" fill="#B2B6B7"/>
<path d="M34.5506 66.7949L32.9023 64.2883L30.3957 65.9366L32.044 68.4432L34.5506 66.7949Z" fill="#393939"/>
<path d="M36.1988 69.3015L34.5505 66.7949L32.0439 68.4432L33.6922 70.9498L36.1988 69.3015Z" fill="black"/>
<path d="M37.8473 71.8081L36.199 69.3015L33.6924 70.9498L35.3407 73.4564L37.8473 71.8081Z" fill="#C7AF14"/>
<path d="M39.4955 74.3147L37.8472 71.8081L35.3406 73.4564L36.9889 75.963L39.4955 74.3147Z" fill="black"/>
<path d="M41.1439 76.8213L39.4956 74.3147L36.989 75.963L38.6373 78.4696L41.1439 76.8213Z" fill="black"/>
<path d="M42.7921 79.3279L41.1438 76.8213L38.6372 78.4696L40.2855 80.9762L42.7921 79.3279Z" fill="#595959"/>
<path d="M44.4403 81.8345L42.792 79.3279L40.2854 80.9762L41.9337 83.4828L44.4403 81.8345Z" fill="#C7AF14"/>
<path d="M46.0887 84.3411L44.4404 81.8345L41.9338 83.4828L43.5821 85.9894L46.0887 84.3411Z" fill="#C7AF14"/>
<path d="M47.7369 86.8477L46.0886 84.3411L43.582 85.9894L45.2303 88.496L47.7369 86.8477Z" fill="#595959"/>
<path d="M49.3854 89.3543L47.7371 86.8477L45.2304 88.496L46.8787 91.0026L49.3854 89.3543Z" fill="black"/>
<path d="M51.0336 91.8611L49.3853 89.3545L46.8786 91.0028L48.5269 93.5094L51.0336 91.8611Z" fill="black"/>
<path d="M52.682 94.3677L51.0337 91.8611L48.5271 93.5094L50.1754 96.016L52.682 94.3677Z" fill="#C7AF14"/>
<path d="M54.3302 96.8743L52.6819 94.3677L50.1753 96.016L51.8236 98.5226L54.3302 96.8743Z" fill="black"/>
<path d="M55.9786 99.3809L54.3303 96.8743L51.8237 98.5226L53.472 101.029L55.9786 99.3809Z" fill="#393939"/>
<path d="M57.6268 101.887L55.9785 99.3809L53.4719 101.029L55.1202 103.536L57.6268 101.887Z" fill="#B2B6B7"/>
<path d="M59.275 104.394L57.6267 101.887L55.1201 103.536L56.7684 106.042L59.275 104.394Z" fill="#FBFEFF"/>
<path d="M60.9234 106.901L59.2751 104.394L56.7685 106.042L58.4168 108.549L60.9234 106.901Z" fill="black"/>
<path d="M62.5716 109.407L60.9233 106.901L58.4167 108.549L60.065 111.056L62.5716 109.407Z" fill="#FAF9F5"/>
<path d="M64.2201 111.914L62.5718 109.407L60.0652 111.056L61.7135 113.562L64.2201 111.914Z" fill="#B2B6B7"/>
<path d="M65.8683 114.42L64.22 111.914L61.7134 113.562L63.3617 116.069L65.8683 114.42Z" fill="#FFEA63"/>
<path d="M67.5167 116.927L65.8684 114.42L63.3618 116.069L65.0101 118.575L67.5167 116.927Z" fill="#6F6F6F"/>
<path d="M69.1649 119.434L67.5166 116.927L65.01 118.575L66.6583 121.082L69.1649 119.434Z" fill="black"/>
<path d="M20.506 50.897L18.8577 48.3904L16.3511 50.0387L17.9994 52.5453L20.506 50.897Z" fill="#171717"/>
<path d="M22.1542 53.4036L20.5059 50.897L17.9992 52.5453L19.6475 55.0519L22.1542 53.4036Z" fill="#6F6F6F"/>
<path d="M23.8026 55.9102L22.1543 53.4036L19.6477 55.0519L21.296 57.5585L23.8026 55.9102Z" fill="#6F6F6F"/>
<path d="M25.4508 58.4168L23.8025 55.9102L21.2959 57.5585L22.9442 60.0651L25.4508 58.4168Z" fill="#B2B6B7"/>
<path d="M27.099 60.9234L25.4507 58.4167L22.9441 60.065L24.5924 62.5717L27.099 60.9234Z" fill="black"/>
<path d="M28.7474 63.43L27.0991 60.9233L24.5925 62.5716L26.2408 65.0783L28.7474 63.43Z" fill="#393939"/>
<path d="M30.3956 65.9365L28.7473 63.4299L26.2407 65.0782L27.889 67.5848L30.3956 65.9365Z" fill="#B2B6B7"/>
<path d="M32.0441 68.4431L30.3958 65.9365L27.8891 67.5848L29.5374 70.0914L32.0441 68.4431Z" fill="black"/>
<path d="M33.6922 70.9497L32.0439 68.4431L29.5373 70.0914L31.1856 72.598L33.6922 70.9497Z" fill="black"/>
<path d="M35.3407 73.4563L33.6924 70.9497L31.1858 72.598L32.8341 75.1046L35.3407 73.4563Z" fill="black"/>
<path d="M36.9889 75.9629L35.3406 73.4563L32.834 75.1046L34.4823 77.6112L36.9889 75.9629Z" fill="black"/>
<path d="M38.6373 78.4697L36.989 75.9631L34.4824 77.6114L36.1307 80.118L38.6373 78.4697Z" fill="black"/>
<path d="M40.2855 80.9763L38.6372 78.4697L36.1306 80.118L37.7789 82.6246L40.2855 80.9763Z" fill="#6F6F6F"/>
<path d="M41.9337 83.4829L40.2854 80.9763L37.7788 82.6246L39.4271 85.1312L41.9337 83.4829Z" fill="#8C8E8E"/>
<path d="M43.5821 85.9895L41.9338 83.4829L39.4272 85.1312L41.0755 87.6378L43.5821 85.9895Z" fill="#8C8E8E"/>
<path d="M45.2303 88.4961L43.582 85.9895L41.0754 87.6378L42.7237 90.1444L45.2303 88.4961Z" fill="#6F6F6F"/>
<path d="M46.8788 91.0027L45.2305 88.4961L42.7239 90.1444L44.3722 92.651L46.8788 91.0027Z" fill="black"/>
<path d="M48.527 93.5093L46.8787 91.0027L44.372 92.651L46.0204 95.1576L48.527 93.5093Z" fill="black"/>
<path d="M50.1754 96.0159L48.5271 93.5093L46.0205 95.1576L47.6688 97.6642L50.1754 96.0159Z" fill="black"/>
<path d="M51.8236 98.5225L50.1753 96.0159L47.6687 97.6642L49.317 100.171L51.8236 98.5225Z" fill="black"/>
<path d="M53.4718 101.029L51.8235 98.5225L49.3169 100.171L50.9652 102.677L53.4718 101.029Z" fill="black"/>
<path d="M55.1202 103.536L53.4719 101.029L50.9653 102.677L52.6136 105.184L55.1202 103.536Z" fill="#B2B6B7"/>
<path d="M56.7684 106.042L55.1201 103.536L52.6135 105.184L54.2618 107.691L56.7684 106.042Z" fill="#393939"/>
<path d="M58.4169 108.549L56.7686 106.042L54.2619 107.691L55.9102 110.197L58.4169 108.549Z" fill="black"/>
<path d="M60.065 111.056L58.4167 108.549L55.9101 110.197L57.5584 112.704L60.065 111.056Z" fill="#B2B6B7"/>
<path d="M61.7135 113.562L60.0652 111.056L57.5586 112.704L59.2069 115.211L61.7135 113.562Z" fill="#6F6F6F"/>
<path d="M63.3617 116.069L61.7134 113.562L59.2068 115.211L60.8551 117.717L63.3617 116.069Z" fill="#6F6F6F"/>
<path d="M65.0101 118.575L63.3618 116.069L60.8552 117.717L62.5035 120.224L65.0101 118.575Z" fill="#171717"/>
<path d="M19.6476 55.0518L17.9993 52.5452L15.4927 54.1935L17.141 56.7001L19.6476 55.0518Z" fill="#171717"/>
<path d="M21.2958 57.5584L19.6475 55.0518L17.1408 56.7001L18.7891 59.2067L21.2958 57.5584Z" fill="#171717"/>
<path d="M22.9442 60.065L21.2959 57.5583L18.7893 59.2067L20.4376 61.7133L22.9442 60.065Z" fill="#6F6F6F"/>
<path d="M24.5924 62.5716L22.9441 60.0649L20.4375 61.7132L22.0858 64.2199L24.5924 62.5716Z" fill="black"/>
<path d="M26.2408 65.0781L24.5925 62.5715L22.0859 64.2198L23.7342 66.7264L26.2408 65.0781Z" fill="black"/>
<path d="M27.889 67.585L26.2407 65.0784L23.7341 66.7267L25.3824 69.2333L27.889 67.585Z" fill="#B2B6B7"/>
<path d="M29.5375 70.0916L27.8892 67.585L25.3825 69.2333L27.0308 71.7399L29.5375 70.0916Z" fill="black"/>
<path d="M32.8341 75.1048L31.1858 72.5981L28.6792 74.2464L30.3275 76.7531L32.8341 75.1048Z" fill="black"/>
<path d="M34.4823 77.6113L32.834 75.1047L30.3274 76.753L31.9757 79.2596L34.4823 77.6113Z" fill="black"/>
<path d="M36.1305 80.1179L34.4822 77.6113L31.9756 79.2596L33.6239 81.7662L36.1305 80.1179Z" fill="black"/>
<path d="M37.7789 82.6245L36.1306 80.1179L33.624 81.7662L35.2723 84.2728L37.7789 82.6245Z" fill="black"/>
<path d="M39.4271 85.1311L37.7788 82.6245L35.2722 84.2728L36.9205 86.7794L39.4271 85.1311Z" fill="black"/>
<path d="M41.0755 87.6377L39.4272 85.1311L36.9206 86.7794L38.5689 89.286L41.0755 87.6377Z" fill="black"/>
<path d="M42.7237 90.1443L41.0754 87.6377L38.5688 89.286L40.2171 91.7926L42.7237 90.1443Z" fill="black"/>
<path d="M44.3722 92.6509L42.7239 90.1443L40.2173 91.7926L41.8656 94.2992L44.3722 92.6509Z" fill="black"/>
<path d="M46.0204 95.1575L44.3721 92.6509L41.8655 94.2992L43.5138 96.8058L46.0204 95.1575Z" fill="black"/>
<path d="M47.6688 97.6643L46.0205 95.1577L43.5139 96.806L45.1622 99.3126L47.6688 97.6643Z" fill="black"/>
<path d="M50.9652 102.678L49.3169 100.171L46.8103 101.819L48.4586 104.326L50.9652 102.678Z" fill="black"/>
<path d="M52.6136 105.184L50.9653 102.677L48.4587 104.326L50.107 106.832L52.6136 105.184Z" fill="#B2B6B7"/>
<path d="M54.2618 107.691L52.6135 105.184L50.1069 106.832L51.7552 109.339L54.2618 107.691Z" fill="black"/>
<path d="M55.9103 110.197L54.262 107.691L51.7554 109.339L53.4037 111.846L55.9103 110.197Z" fill="black"/>
<path d="M57.5585 112.704L55.9102 110.197L53.4035 111.846L55.0518 114.352L57.5585 112.704Z" fill="#6F6F6F"/>
<path d="M59.2069 115.21L57.5586 112.704L55.052 114.352L56.7003 116.859L59.2069 115.21Z" fill="#171717"/>
<path d="M60.8551 117.717L59.2068 115.21L56.7002 116.859L58.3485 119.365L60.8551 117.717Z" fill="#171717"/>
<path d="M20.4376 61.7134L18.7893 59.2068L16.2827 60.8551L17.931 63.3617L20.4376 61.7134Z" fill="#171717"/>
<path d="M22.0858 64.22L20.4375 61.7134L17.9309 63.3617L19.5792 65.8683L22.0858 64.22Z" fill="#171717"/>
<path d="M23.7342 66.7266L22.0859 64.22L19.5793 65.8683L21.2276 68.3749L23.7342 66.7266Z" fill="black"/>
<path d="M25.3824 69.2332L23.7341 66.7266L21.2275 68.3749L22.8758 70.8815L25.3824 69.2332Z" fill="black"/>
<path d="M27.0309 71.7398L25.3826 69.2332L22.876 70.8815L24.5243 73.3881L27.0309 71.7398Z" fill="black"/>
<path d="M31.9757 79.2595L30.3274 76.7529L27.8208 78.4012L29.4691 80.9078L31.9757 79.2595Z" fill="black"/>
<path d="M33.6239 81.7661L31.9756 79.2595L29.469 80.9078L31.1173 83.4144L33.6239 81.7661Z" fill="#DF2323"/>
<path d="M35.2723 84.2727L33.624 81.7661L31.1174 83.4144L32.7657 85.921L35.2723 84.2727Z" fill="#E94848"/>
<path d="M36.9205 86.7796L35.2722 84.2729L32.7656 85.9212L34.4139 88.4279L36.9205 86.7796Z" fill="#F47171"/>
<path d="M38.569 89.2862L36.9207 86.7795L34.414 88.4278L36.0623 90.9345L38.569 89.2862Z" fill="#F47171"/>
<path d="M40.2171 91.7927L38.5688 89.2861L36.0622 90.9344L37.7105 93.441L40.2171 91.7927Z" fill="#E94848"/>
<path d="M41.8656 94.2993L40.2173 91.7927L37.7107 93.441L39.359 95.9476L41.8656 94.2993Z" fill="#DF2323"/>
<path d="M43.5138 96.8059L41.8655 94.2993L39.3589 95.9476L41.0072 98.4542L43.5138 96.8059Z" fill="black"/>
<path d="M48.4586 104.326L46.8103 101.819L44.3037 103.467L45.952 105.974L48.4586 104.326Z" fill="black"/>
<path d="M50.107 106.832L48.4587 104.326L45.9521 105.974L47.6004 108.481L50.107 106.832Z" fill="black"/>
<path d="M51.7552 109.339L50.1069 106.832L47.6003 108.481L49.2486 110.987L51.7552 109.339Z" fill="black"/>
<path d="M53.4037 111.845L51.7554 109.339L49.2488 110.987L50.8971 113.494L53.4037 111.845Z" fill="#171717"/>
<path d="M55.0519 114.352L53.4036 111.845L50.897 113.494L52.5453 116L55.0519 114.352Z" fill="#171717"/>
<path d="M21.2276 68.3748L19.5793 65.8682L17.0727 67.5165L18.721 70.0231L21.2276 68.3748Z" fill="black"/>
<path d="M22.8758 70.8814L21.2275 68.3748L18.7209 70.0231L20.3692 72.5297L22.8758 70.8814Z" fill="black"/>
<path d="M24.5243 73.388L22.876 70.8813L20.3694 72.5296L22.0177 75.0363L24.5243 73.388Z" fill="black"/>
<path d="M29.4691 80.908L27.8208 78.4014L25.3142 80.0497L26.9625 82.5563L29.4691 80.908Z" fill="black"/>
<path d="M31.1173 83.4146L29.469 80.908L26.9624 82.5563L28.6107 85.0629L31.1173 83.4146Z" fill="black"/>
<path d="M32.7657 85.9212L31.1174 83.4146L28.6108 85.0629L30.2591 87.5695L32.7657 85.9212Z" fill="black"/>
<path d="M34.4139 88.4278L32.7656 85.9211L30.259 87.5694L31.9073 90.0761L34.4139 88.4278Z" fill="black"/>
<path d="M36.0624 90.9343L34.4141 88.4277L31.9075 90.076L33.5558 92.5826L36.0624 90.9343Z" fill="black"/>
<path d="M37.7106 93.4409L36.0623 90.9343L33.5556 92.5826L35.2039 95.0892L37.7106 93.4409Z" fill="black"/>
<path d="M39.3587 95.9475L37.7104 93.4409L35.2038 95.0892L36.8521 97.5958L39.3587 95.9475Z" fill="black"/>
<path d="M41.0072 98.4541L39.3589 95.9475L36.8523 97.5958L38.5006 100.102L41.0072 98.4541Z" fill="black"/>
<path d="M45.952 105.974L44.3037 103.468L41.7971 105.116L43.4454 107.622L45.952 105.974Z" fill="black"/>
<path d="M47.6004 108.481L45.9521 105.974L43.4455 107.622L45.0938 110.129L47.6004 108.481Z" fill="black"/>
<path d="M49.2486 110.987L47.6003 108.481L45.0937 110.129L46.742 112.636L49.2486 110.987Z" fill="black"/>
</g>
<defs>
<clipPath id="clip0_119_2">
<rect width="96" height="96" fill="white" transform="translate(80.7329 0.52124) rotate(56.6718)"/>
</clipPath>
</defs>
</svg>
