<?xml version="1.0" encoding="UTF-8" ?>
<svg version="1.1" width="93" height="93" xmlns="http://www.w3.org/2000/svg" shape-rendering="crispEdges">
<rect x="45" y="21" width="3" height="3" fill="#695D21" />
<rect x="45" y="24" width="3" height="3" fill="#A4921E" />
<rect x="42" y="27" width="3" height="3" fill="#695D21" />
<rect x="45" y="27" width="3" height="3" fill="#A4921E" />
<rect x="48" y="27" width="3" height="3" fill="#695D21" />
<rect x="39" y="30" width="3" height="3" fill="#695D21" />
<rect x="42" y="30" width="3" height="3" fill="#A4921E" />
<rect x="45" y="30" width="3" height="3" fill="#D5BF30" />
<rect x="48" y="30" width="3" height="3" fill="#A4921E" />
<rect x="51" y="30" width="3" height="3" fill="#695D21" />
<rect x="36" y="33" width="3" height="3" fill="#695D21" />
<rect x="39" y="33" width="3" height="3" fill="#A4921E" />
<rect x="42" y="33" width="3" height="3" fill="#D5BF30" />
<rect x="45" y="33" width="3" height="3" fill="#E6E795" />
<rect x="48" y="33" width="3" height="3" fill="#D5BF30" />
<rect x="51" y="33" width="3" height="3" fill="#A4921E" />
<rect x="54" y="33" width="3" height="3" fill="#695D21" />
<rect x="33" y="36" width="3" height="3" fill="#695D21" />
<rect x="36" y="36" width="3" height="3" fill="#A4921E" />
<rect x="39" y="36" width="3" height="3" fill="#D5BF30" />
<rect x="42" y="36" width="3" height="3" fill="#E6E795" />
<rect x="45" y="36" width="3" height="3" fill="#FBFBF3" />
<rect x="48" y="36" width="3" height="3" fill="#E6E795" />
<rect x="51" y="36" width="3" height="3" fill="#D5BF30" />
<rect x="54" y="36" width="3" height="3" fill="#A4921E" />
<rect x="57" y="36" width="3" height="3" fill="#695D21" />
<rect x="27" y="39" width="3" height="3" fill="#695D21" />
<rect x="30" y="39" width="3" height="3" fill="#A4921E" />
<rect x="33" y="39" width="3" height="3" fill="#A4921E" />
<rect x="36" y="39" width="3" height="3" fill="#D5BF30" />
<rect x="39" y="39" width="3" height="3" fill="#E6E795" />
<rect x="42" y="39" width="3" height="3" fill="#FBFBF3" />
<rect x="45" y="39" width="3" height="3" fill="#FBFBF3" />
<rect x="48" y="39" width="3" height="3" fill="#FBFBF3" />
<rect x="51" y="39" width="3" height="3" fill="#E6E795" />
<rect x="54" y="39" width="3" height="3" fill="#D5BF30" />
<rect x="57" y="39" width="3" height="3" fill="#A4921E" />
<rect x="60" y="39" width="3" height="3" fill="#A4921E" />
<rect x="63" y="39" width="3" height="3" fill="#695D21" />
<rect x="33" y="42" width="3" height="3" fill="#695D21" />
<rect x="36" y="42" width="3" height="3" fill="#A4921E" />
<rect x="39" y="42" width="3" height="3" fill="#D5BF30" />
<rect x="42" y="42" width="3" height="3" fill="#E6E795" />
<rect x="45" y="42" width="3" height="3" fill="#FBFBF3" />
<rect x="48" y="42" width="3" height="3" fill="#E6E795" />
<rect x="51" y="42" width="3" height="3" fill="#D5BF30" />
<rect x="54" y="42" width="3" height="3" fill="#A4921E" />
<rect x="57" y="42" width="3" height="3" fill="#695D21" />
<rect x="36" y="45" width="3" height="3" fill="#695D21" />
<rect x="39" y="45" width="3" height="3" fill="#A4921E" />
<rect x="42" y="45" width="3" height="3" fill="#D5BF30" />
<rect x="45" y="45" width="3" height="3" fill="#E6E795" />
<rect x="48" y="45" width="3" height="3" fill="#D5BF30" />
<rect x="51" y="45" width="3" height="3" fill="#A4921E" />
<rect x="54" y="45" width="3" height="3" fill="#695D21" />
<rect x="39" y="48" width="3" height="3" fill="#695D21" />
<rect x="42" y="48" width="3" height="3" fill="#A4921E" />
<rect x="45" y="48" width="3" height="3" fill="#D5BF30" />
<rect x="48" y="48" width="3" height="3" fill="#A4921E" />
<rect x="51" y="48" width="3" height="3" fill="#695D21" />
<rect x="42" y="51" width="3" height="3" fill="#695D21" />
<rect x="45" y="51" width="3" height="3" fill="#A4921E" />
<rect x="48" y="51" width="3" height="3" fill="#695D21" />
<rect x="45" y="54" width="3" height="3" fill="#A4921E" />
<rect x="45" y="57" width="3" height="3" fill="#695D21" />
</svg>