<?xml version="1.0" encoding="UTF-8" ?>
<svg version="1.1" width="96" height="96" xmlns="http://www.w3.org/2000/svg" shape-rendering="crispEdges">
<rect x="30" y="33" width="3" height="3" fill="#FFFFFF" />
<rect x="33" y="33" width="3" height="3" fill="#FFFFFF" />
<rect x="36" y="33" width="3" height="3" fill="#FFFFFF" />
<rect x="39" y="33" width="3" height="3" fill="#FFFFFF" />
<rect x="27" y="36" width="3" height="3" fill="#FFFFFF" />
<rect x="30" y="36" width="3" height="3" fill="#7F7F7F" />
<rect x="33" y="36" width="3" height="3" fill="#7F7F7F" />
<rect x="36" y="36" width="3" height="3" fill="#7F7F7F" />
<rect x="39" y="36" width="3" height="3" fill="#7F7F7F" />
<rect x="42" y="36" width="3" height="3" fill="#FFFFFF" />
<rect x="24" y="39" width="3" height="3" fill="#FFFFFF" />
<rect x="27" y="39" width="3" height="3" fill="#7F7F7F" />
<rect x="30" y="39" width="3" height="3" fill="#9A9A9A" />
<rect x="33" y="39" width="3" height="3" fill="#9A9A9A" />
<rect x="36" y="39" width="3" height="3" fill="#9A9A9A" />
<rect x="39" y="39" width="3" height="3" fill="#9A9A9A" />
<rect x="42" y="39" width="3" height="3" fill="#7F7F7F" />
<rect x="45" y="39" width="3" height="3" fill="#FFFFFF" />
<rect x="24" y="42" width="3" height="3" fill="#FFFFFF" />
<rect x="27" y="42" width="3" height="3" fill="#9A9A9A" />
<rect x="30" y="42" width="3" height="3" fill="#9A9A9A" />
<rect x="33" y="42" width="3" height="3" fill="#9A9A9A" />
<rect x="36" y="42" width="3" height="3" fill="#9A9A9A" />
<rect x="39" y="42" width="3" height="3" fill="#9A9A9A" />
<rect x="42" y="42" width="3" height="3" fill="#9A9A9A" />
<rect x="45" y="42" width="3" height="3" fill="#FFFFFF" />
<rect x="24" y="45" width="3" height="3" fill="#FFFFFF" />
<rect x="27" y="45" width="3" height="3" fill="#9A9A9A" />
<rect x="30" y="45" width="3" height="3" fill="#9A9A9A" />
<rect x="33" y="45" width="3" height="3" fill="#9A9A9A" />
<rect x="36" y="45" width="3" height="3" fill="#9A9A9A" />
<rect x="39" y="45" width="3" height="3" fill="#9A9A9A" />
<rect x="42" y="45" width="3" height="3" fill="#9A9A9A" />
<rect x="45" y="45" width="3" height="3" fill="#FFFFFF" />
<rect x="24" y="48" width="3" height="3" fill="#FFFFFF" />
<rect x="27" y="48" width="3" height="3" fill="#9A9A9A" />
<rect x="30" y="48" width="3" height="3" fill="#9A9A9A" />
<rect x="33" y="48" width="3" height="3" fill="#9A9A9A" />
<rect x="36" y="48" width="3" height="3" fill="#9A9A9A" />
<rect x="39" y="48" width="3" height="3" fill="#9A9A9A" />
<rect x="42" y="48" width="3" height="3" fill="#9A9A9A" />
<rect x="45" y="48" width="3" height="3" fill="#FFFFFF" />
<rect x="24" y="51" width="3" height="3" fill="#9A9A9A" />
<rect x="27" y="51" width="3" height="3" fill="#FFFFFF" />
<rect x="30" y="51" width="3" height="3" fill="#9A9A9A" />
<rect x="33" y="51" width="3" height="3" fill="#9A9A9A" />
<rect x="36" y="51" width="3" height="3" fill="#9A9A9A" />
<rect x="39" y="51" width="3" height="3" fill="#9A9A9A" />
<rect x="42" y="51" width="3" height="3" fill="#FFFFFF" />
<rect x="45" y="51" width="3" height="3" fill="#9A9A9A" />
<rect x="27" y="54" width="3" height="3" fill="#9A9A9A" />
<rect x="30" y="54" width="3" height="3" fill="#FFFFFF" />
<rect x="33" y="54" width="3" height="3" fill="#FFFFFF" />
<rect x="36" y="54" width="3" height="3" fill="#FFFFFF" />
<rect x="39" y="54" width="3" height="3" fill="#FFFFFF" />
<rect x="42" y="54" width="3" height="3" fill="#9A9A9A" />
<rect x="30" y="57" width="3" height="3" fill="#9A9A9A" />
<rect x="33" y="57" width="3" height="3" fill="#9A9A9A" />
<rect x="36" y="57" width="3" height="3" fill="#9A9A9A" />
<rect x="39" y="57" width="3" height="3" fill="#9A9A9A" />
</svg>