<?xml version="1.0" encoding="UTF-8" ?>
<svg version="1.1" width="96" height="96" xmlns="http://www.w3.org/2000/svg" shape-rendering="crispEdges">
<rect x="54" y="33" width="3" height="3" fill="#FFFFFF" />
<rect x="57" y="33" width="3" height="3" fill="#FFFFFF" />
<rect x="60" y="33" width="3" height="3" fill="#FFFFFF" />
<rect x="63" y="33" width="3" height="3" fill="#FFFFFF" />
<rect x="51" y="36" width="3" height="3" fill="#FFFFFF" />
<rect x="54" y="36" width="3" height="3" fill="#7F7F7F" />
<rect x="57" y="36" width="3" height="3" fill="#7F7F7F" />
<rect x="60" y="36" width="3" height="3" fill="#7F7F7F" />
<rect x="63" y="36" width="3" height="3" fill="#7F7F7F" />
<rect x="66" y="36" width="3" height="3" fill="#FFFFFF" />
<rect x="48" y="39" width="3" height="3" fill="#FFFFFF" />
<rect x="51" y="39" width="3" height="3" fill="#7F7F7F" />
<rect x="54" y="39" width="3" height="3" fill="#9A9A9A" />
<rect x="57" y="39" width="3" height="3" fill="#9A9A9A" />
<rect x="60" y="39" width="3" height="3" fill="#9A9A9A" />
<rect x="63" y="39" width="3" height="3" fill="#9A9A9A" />
<rect x="66" y="39" width="3" height="3" fill="#7F7F7F" />
<rect x="69" y="39" width="3" height="3" fill="#FFFFFF" />
<rect x="48" y="42" width="3" height="3" fill="#FFFFFF" />
<rect x="51" y="42" width="3" height="3" fill="#9A9A9A" />
<rect x="54" y="42" width="3" height="3" fill="#9A9A9A" />
<rect x="57" y="42" width="3" height="3" fill="#9A9A9A" />
<rect x="60" y="42" width="3" height="3" fill="#9A9A9A" />
<rect x="63" y="42" width="3" height="3" fill="#9A9A9A" />
<rect x="66" y="42" width="3" height="3" fill="#9A9A9A" />
<rect x="69" y="42" width="3" height="3" fill="#FFFFFF" />
<rect x="48" y="45" width="3" height="3" fill="#FFFFFF" />
<rect x="51" y="45" width="3" height="3" fill="#9A9A9A" />
<rect x="54" y="45" width="3" height="3" fill="#9A9A9A" />
<rect x="57" y="45" width="3" height="3" fill="#9A9A9A" />
<rect x="60" y="45" width="3" height="3" fill="#9A9A9A" />
<rect x="63" y="45" width="3" height="3" fill="#9A9A9A" />
<rect x="66" y="45" width="3" height="3" fill="#9A9A9A" />
<rect x="69" y="45" width="3" height="3" fill="#FFFFFF" />
<rect x="48" y="48" width="3" height="3" fill="#FFFFFF" />
<rect x="51" y="48" width="3" height="3" fill="#9A9A9A" />
<rect x="54" y="48" width="3" height="3" fill="#9A9A9A" />
<rect x="57" y="48" width="3" height="3" fill="#9A9A9A" />
<rect x="60" y="48" width="3" height="3" fill="#9A9A9A" />
<rect x="63" y="48" width="3" height="3" fill="#9A9A9A" />
<rect x="66" y="48" width="3" height="3" fill="#9A9A9A" />
<rect x="69" y="48" width="3" height="3" fill="#FFFFFF" />
<rect x="48" y="51" width="3" height="3" fill="#9A9A9A" />
<rect x="51" y="51" width="3" height="3" fill="#FFFFFF" />
<rect x="54" y="51" width="3" height="3" fill="#9A9A9A" />
<rect x="57" y="51" width="3" height="3" fill="#9A9A9A" />
<rect x="60" y="51" width="3" height="3" fill="#9A9A9A" />
<rect x="63" y="51" width="3" height="3" fill="#9A9A9A" />
<rect x="66" y="51" width="3" height="3" fill="#FFFFFF" />
<rect x="69" y="51" width="3" height="3" fill="#9A9A9A" />
<rect x="51" y="54" width="3" height="3" fill="#9A9A9A" />
<rect x="54" y="54" width="3" height="3" fill="#FFFFFF" />
<rect x="57" y="54" width="3" height="3" fill="#FFFFFF" />
<rect x="60" y="54" width="3" height="3" fill="#FFFFFF" />
<rect x="63" y="54" width="3" height="3" fill="#FFFFFF" />
<rect x="66" y="54" width="3" height="3" fill="#9A9A9A" />
<rect x="54" y="57" width="3" height="3" fill="#9A9A9A" />
<rect x="57" y="57" width="3" height="3" fill="#9A9A9A" />
<rect x="60" y="57" width="3" height="3" fill="#9A9A9A" />
<rect x="63" y="57" width="3" height="3" fill="#9A9A9A" />
</svg>